<?xml version="1.0" standalone="no"?>
 <!DOCTYPE svg PUBLIC "-//W3C//DTD SVG 1.1//EN" 
 "http://www.w3.org/Graphics/SVG/1.1/DTD/svg11.dtd"> 
<svg
  xmlns:svg="http://www.w3.org/2000/svg"
  xmlns="http://www.w3.org/2000/svg"
  xmlns:xlink="http://www.w3.org/1999/xlink"
  version="1.1"
  width="7.244080cm" height="2.773680cm" viewBox="0 0 28520 10920">
<title>SVG Picture created as power-bank-load-brd.svg date 2022/07/14 21:33:24 </title>
  <desc>Picture generated by PCBNEW </desc>
<g style="fill:#000000; fill-opacity:1;stroke:#000000; stroke-opacity:1;
stroke-linecap:round; stroke-linejoin:round;"
 transform="translate(0 0) scale(1 1)">
</g>
<g style="fill:#000000; fill-opacity:0.0; 
stroke:#000000; stroke-width:-0.000393701; stroke-opacity:1; 
stroke-linecap:round; stroke-linejoin:round;">
<g >
</g>
<g style="fill:#000000; fill-opacity:1.0; 
stroke:#000000; stroke-width:0; stroke-opacity:1; 
stroke-linecap:round; stroke-linejoin:round;">
<circle cx="10013.8" cy="9100" r="257.48" /> 
</g>
<g style="fill:#000000; fill-opacity:1.0; 
stroke:#000000; stroke-width:39.3701; stroke-opacity:1; 
stroke-linecap:round; stroke-linejoin:round;">
</g>
<g style="fill:#000000; fill-opacity:1.0; 
stroke:#000000; stroke-width:0; stroke-opacity:1; 
stroke-linecap:round; stroke-linejoin:round;">
<circle cx="10998" cy="9100" r="257.48" /> 
</g>
<g style="fill:#000000; fill-opacity:1.0; 
stroke:#000000; stroke-width:39.3701; stroke-opacity:1; 
stroke-linecap:round; stroke-linejoin:round;">
</g>
<g style="fill:#000000; fill-opacity:1.0; 
stroke:#000000; stroke-width:0; stroke-opacity:1; 
stroke-linecap:round; stroke-linejoin:round;">
<path style="fill:#000000; fill-opacity:1.0; 
stroke:#000000; stroke-width:0; stroke-opacity:1; 
stroke-linecap:round; stroke-linejoin:round;fill-rule:evenodd;"
d="M 12239.8,8842.52
12239.8,9357.48
11724.8,9357.48
11724.8,8842.52
Z" /> 
</g>
<g >
</g>
<g >
</g>
<g style="fill:#000000; fill-opacity:1.0; 
stroke:#000000; stroke-width:0; stroke-opacity:1; 
stroke-linecap:round; stroke-linejoin:round;">
<path style="fill:#000000; fill-opacity:1.0; 
stroke:#000000; stroke-width:0; stroke-opacity:1; 
stroke-linecap:round; stroke-linejoin:round;fill-rule:evenodd;"
d="M 16301.2,9096.85
16301.2,8703.15
16694.9,8703.15
16694.9,9096.85
Z" /> 
</g>
<g >
</g>
<g style="fill:#000000; fill-opacity:1.0; 
stroke:#000000; stroke-width:0; stroke-opacity:1; 
stroke-linecap:round; stroke-linejoin:round;">
<path style="fill:#000000; fill-opacity:1.0; 
stroke:#000000; stroke-width:0; stroke-opacity:1; 
stroke-linecap:round; stroke-linejoin:round;fill-rule:evenodd;"
d="M 22201.2,5596.85
22201.2,5203.15
22594.9,5203.15
22594.9,5596.85
Z" /> 
</g>
<g >
</g>
<g >
</g>
<g >
</g>
<g style="fill:#000000; fill-opacity:1.0; 
stroke:#000000; stroke-width:0; stroke-opacity:1; 
stroke-linecap:round; stroke-linejoin:round;">
<path style="fill:#000000; fill-opacity:1.0; 
stroke:#000000; stroke-width:0; stroke-opacity:1; 
stroke-linecap:round; stroke-linejoin:round;fill-rule:evenodd;"
d="M 13201.2,5496.85
13201.2,5103.15
13594.9,5103.15
13594.9,5496.85
Z" /> 
</g>
<g >
</g>
<g style="fill:#000000; fill-opacity:1.0; 
stroke:#000000; stroke-width:0; stroke-opacity:1; 
stroke-linecap:round; stroke-linejoin:round;">
<path style="fill:#000000; fill-opacity:1.0; 
stroke:#000000; stroke-width:0; stroke-opacity:1; 
stroke-linecap:round; stroke-linejoin:round;fill-rule:evenodd;"
d="M 14501.2,8496.85
14501.2,8103.15
14894.9,8103.15
14894.9,8496.85
Z" /> 
</g>
<g >
</g>
<g style="fill:#000000; fill-opacity:1.0; 
stroke:#000000; stroke-width:0; stroke-opacity:1; 
stroke-linecap:round; stroke-linejoin:round;">
<path style="fill:#000000; fill-opacity:1.0; 
stroke:#000000; stroke-width:0; stroke-opacity:1; 
stroke-linecap:round; stroke-linejoin:round;fill-rule:evenodd;"
d="M 16001.2,4196.85
16001.2,3803.15
16394.9,3803.15
16394.9,4196.85
Z" /> 
</g>
<g >
</g>
<g style="fill:#000000; fill-opacity:1.0; 
stroke:#000000; stroke-width:0; stroke-opacity:1; 
stroke-linecap:round; stroke-linejoin:round;">
<path style="fill:#000000; fill-opacity:1.0; 
stroke:#000000; stroke-width:0; stroke-opacity:1; 
stroke-linecap:round; stroke-linejoin:round;fill-rule:evenodd;"
d="M 10701.2,6696.85
10701.2,6303.15
11094.9,6303.15
11094.9,6696.85
Z" /> 
</g>
<g >
</g>
<g style="fill:#000000; fill-opacity:1.0; 
stroke:#000000; stroke-width:0; stroke-opacity:1; 
stroke-linecap:round; stroke-linejoin:round;">
<path style="fill:#000000; fill-opacity:1.0; 
stroke:#000000; stroke-width:0; stroke-opacity:1; 
stroke-linecap:round; stroke-linejoin:round;fill-rule:evenodd;"
d="M 10601.2,3996.85
10601.2,3603.15
10994.9,3603.15
10994.9,3996.85
Z" /> 
</g>
<g >
</g>
<g style="fill:#000000; fill-opacity:1.0; 
stroke:#000000; stroke-width:0; stroke-opacity:1; 
stroke-linecap:round; stroke-linejoin:round;">
<path style="fill:#000000; fill-opacity:1.0; 
stroke:#000000; stroke-width:0; stroke-opacity:1; 
stroke-linecap:round; stroke-linejoin:round;fill-rule:evenodd;"
d="M 11501.2,3996.85
11501.2,3603.15
11894.9,3603.15
11894.9,3996.85
Z" /> 
</g>
<g >
</g>
<g style="fill:#000000; fill-opacity:1.0; 
stroke:#000000; stroke-width:0; stroke-opacity:1; 
stroke-linecap:round; stroke-linejoin:round;">
<path style="fill:#000000; fill-opacity:1.0; 
stroke:#000000; stroke-width:0; stroke-opacity:1; 
stroke-linecap:round; stroke-linejoin:round;fill-rule:evenodd;"
d="M 12401.2,3996.85
12401.2,3603.15
12794.9,3603.15
12794.9,3996.85
Z" /> 
</g>
<g >
</g>
<g style="fill:#000000; fill-opacity:1.0; 
stroke:#000000; stroke-width:0; stroke-opacity:1; 
stroke-linecap:round; stroke-linejoin:round;">
<path style="fill:#000000; fill-opacity:1.0; 
stroke:#000000; stroke-width:0; stroke-opacity:1; 
stroke-linecap:round; stroke-linejoin:round;fill-rule:evenodd;"
d="M 8401.18,8896.85
8401.18,8503.15
8794.88,8503.15
8794.88,8896.85
Z" /> 
</g>
<g >
</g>
<g style="fill:#000000; fill-opacity:1.0; 
stroke:#000000; stroke-width:0; stroke-opacity:1; 
stroke-linecap:round; stroke-linejoin:round;">
<path style="fill:#000000; fill-opacity:1.0; 
stroke:#000000; stroke-width:0; stroke-opacity:1; 
stroke-linecap:round; stroke-linejoin:round;fill-rule:evenodd;"
d="M 16701.2,3196.85
16701.2,2803.15
17094.9,2803.15
17094.9,3196.85
Z" /> 
</g>
<g >
</g>
<g style="fill:#000000; fill-opacity:1.0; 
stroke:#000000; stroke-width:0; stroke-opacity:1; 
stroke-linecap:round; stroke-linejoin:round;">
<path style="fill:#000000; fill-opacity:1.0; 
stroke:#000000; stroke-width:0; stroke-opacity:1; 
stroke-linecap:round; stroke-linejoin:round;fill-rule:evenodd;"
d="M 8401.18,7996.85
8401.18,7603.15
8794.88,7603.15
8794.88,7996.85
Z" /> 
</g>
<g >
</g>
<g style="fill:#000000; fill-opacity:1.0; 
stroke:#000000; stroke-width:0; stroke-opacity:1; 
stroke-linecap:round; stroke-linejoin:round;">
<path style="fill:#000000; fill-opacity:1.0; 
stroke:#000000; stroke-width:0; stroke-opacity:1; 
stroke-linecap:round; stroke-linejoin:round;fill-rule:evenodd;"
d="M 14201.2,5496.85
14201.2,5103.15
14594.9,5103.15
14594.9,5496.85
Z" /> 
</g>
<g >
</g>
<g >
</g>
<g style="fill:#000000; fill-opacity:1.0; 
stroke:#000000; stroke-width:0; stroke-opacity:1; 
stroke-linecap:round; stroke-linejoin:round;">
<circle cx="15498" cy="2500" r="283.465" /> 
</g>
<g style="fill:#000000; fill-opacity:1.0; 
stroke:#000000; stroke-width:39.3701; stroke-opacity:1; 
stroke-linecap:round; stroke-linejoin:round;">
</g>
<g style="fill:#000000; fill-opacity:1.0; 
stroke:#000000; stroke-width:0; stroke-opacity:1; 
stroke-linecap:round; stroke-linejoin:round;">
<circle cx="14498" cy="2500" r="283.465" /> 
</g>
<g style="fill:#000000; fill-opacity:1.0; 
stroke:#000000; stroke-width:39.3701; stroke-opacity:1; 
stroke-linecap:round; stroke-linejoin:round;">
</g>
<g style="fill:#000000; fill-opacity:1.0; 
stroke:#000000; stroke-width:0; stroke-opacity:1; 
stroke-linecap:round; stroke-linejoin:round;">
<circle cx="13498" cy="2500" r="283.465" /> 
</g>
<g style="fill:#000000; fill-opacity:1.0; 
stroke:#000000; stroke-width:39.3701; stroke-opacity:1; 
stroke-linecap:round; stroke-linejoin:round;">
</g>
<g >
</g>
<g style="fill:#000000; fill-opacity:1.0; 
stroke:#000000; stroke-width:39.3701; stroke-opacity:1; 
stroke-linecap:round; stroke-linejoin:round;">
</g>
<g style="fill:#000000; fill-opacity:1.0; 
stroke:#000000; stroke-width:0; stroke-opacity:1; 
stroke-linecap:round; stroke-linejoin:round;">
<circle cx="11398" cy="2500" r="283.465" /> 
</g>
<g style="fill:#000000; fill-opacity:1.0; 
stroke:#000000; stroke-width:39.3701; stroke-opacity:1; 
stroke-linecap:round; stroke-linejoin:round;">
</g>
<g style="fill:#000000; fill-opacity:1.0; 
stroke:#000000; stroke-width:0; stroke-opacity:1; 
stroke-linecap:round; stroke-linejoin:round;">
<circle cx="10398" cy="2500" r="283.465" /> 
</g>
<g style="fill:#000000; fill-opacity:1.0; 
stroke:#000000; stroke-width:39.3701; stroke-opacity:1; 
stroke-linecap:round; stroke-linejoin:round;">
</g>
<g style="fill:#000000; fill-opacity:1.0; 
stroke:#000000; stroke-width:0; stroke-opacity:1; 
stroke-linecap:round; stroke-linejoin:round;">
<circle cx="9398.03" cy="2500" r="283.465" /> 
</g>
<g style="fill:#000000; fill-opacity:1.0; 
stroke:#000000; stroke-width:39.3701; stroke-opacity:1; 
stroke-linecap:round; stroke-linejoin:round;">
</g>
<g >
</g>
<g >
</g>
<g >
</g>
<g >
</g>
<g >
</g>
<g >
</g>
<g >
</g>
<g >
</g>
<g style="fill:#000000; fill-opacity:1.0; 
stroke:#000000; stroke-width:39.3701; stroke-opacity:1; 
stroke-linecap:round; stroke-linejoin:round;">
</g>
<g style="fill:#000000; fill-opacity:1.0; 
stroke:#000000; stroke-width:0; stroke-opacity:1; 
stroke-linecap:round; stroke-linejoin:round;">
<path style="fill:#000000; fill-opacity:1.0; 
stroke:#000000; stroke-width:0; stroke-opacity:1; 
stroke-linecap:round; stroke-linejoin:round;fill-rule:evenodd;"
d="M 21257.4,5362.29
21290.8,5367.25
21323.6,5375.46
21355.5,5386.85
21386,5401.31
21415,5418.69
21442.2,5438.83
21467.2,5461.53
21489.9,5486.58
21510.1,5513.73
21527.4,5542.73
21541.9,5573.29
21553.3,5605.12
21561.5,5637.91
21566.5,5671.35
21568.1,5705.12
21568.1,6394.09
21566.5,6427.86
21561.5,6461.3
21553.3,6494.09
21541.9,6525.92
21527.4,6556.49
21510.1,6585.48
21489.9,6612.64
21467.2,6637.68
21442.2,6660.39
21415,6680.53
21386,6697.91
21355.5,6712.36
21323.6,6723.75
21290.8,6731.96
21257.4,6736.92
21223.6,6738.58
20534.6,6738.58
20500.9,6736.92
20467.4,6731.96
20434.6,6723.75
20402.8,6712.36
20372.3,6697.91
20343.3,6680.53
20316.1,6660.39
20291.1,6637.68
20268.4,6612.64
20248.2,6585.48
20230.8,6556.49
20216.4,6525.92
20205,6494.09
20196.8,6461.3
20191.8,6427.86
20190.2,6394.09
20190.2,5705.12
20191.8,5671.35
20196.8,5637.91
20205,5605.12
20216.4,5573.29
20230.8,5542.73
20248.2,5513.73
20268.4,5486.58
20291.1,5461.53
20316.1,5438.83
20343.3,5418.69
20372.3,5401.31
20402.8,5386.85
20434.6,5375.46
20467.4,5367.25
20500.9,5362.29
20534.6,5360.63
21223.6,5360.63
Z" /> 
<path style="fill:#000000; fill-opacity:1.0; 
stroke:#000000; stroke-width:0; stroke-opacity:1; 
stroke-linecap:round; stroke-linejoin:round;fill-rule:evenodd;"
d="M 22384.5,7212.45
22413.1,7216.7
22441.2,7223.74
22468.5,7233.5
22494.7,7245.89
22519.6,7260.79
22542.8,7278.05
22564.3,7297.51
22583.8,7318.98
22601,7342.25
22615.9,7367.11
22628.3,7393.3
22638.1,7420.59
22645.1,7448.69
22649.4,7477.36
22650.8,7506.3
22650.8,8293.7
22649.4,8322.64
22645.1,8351.31
22638.1,8379.41
22628.3,8406.7
22615.9,8432.89
22601,8457.75
22583.8,8481.02
22564.3,8502.49
22542.8,8521.95
22519.6,8539.21
22494.7,8554.11
22468.5,8566.5
22441.2,8576.26
22413.1,8583.3
22384.5,8587.55
22355.5,8588.98
21765,8588.98
21736,8587.55
21707.4,8583.3
21679.2,8576.26
21652,8566.5
21625.8,8554.11
21600.9,8539.21
21577.6,8521.95
21556.2,8502.49
21536.7,8481.02
21519.4,8457.75
21504.6,8432.89
21492.2,8406.7
21482.4,8379.41
21475.4,8351.31
21471.1,8322.64
21469.7,8293.7
21469.7,7506.3
21471.1,7477.36
21475.4,7448.69
21482.4,7420.59
21492.2,7393.3
21504.6,7367.11
21519.4,7342.25
21536.7,7318.98
21556.2,7297.51
21577.6,7278.05
21600.9,7260.79
21625.8,7245.89
21652,7233.5
21679.2,7223.74
21707.4,7216.7
21736,7212.45
21765,7211.02
22355.5,7211.02
Z" /> 
<path style="fill:#000000; fill-opacity:1.0; 
stroke:#000000; stroke-width:0; stroke-opacity:1; 
stroke-linecap:round; stroke-linejoin:round;fill-rule:evenodd;"
d="M 20387,7211.02
20387,8588.98
19009.1,8588.98
19009.1,7211.02
Z" /> 
</g>
<g >
</g>
<g style="fill:#000000; fill-opacity:1.0; 
stroke:#000000; stroke-width:0; stroke-opacity:1; 
stroke-linecap:round; stroke-linejoin:round;">
</g>
<g style="fill:#000000; fill-opacity:1.0; 
stroke:#000000; stroke-width:748.031; stroke-opacity:1; 
stroke-linecap:round; stroke-linejoin:round;">
</g>
<g style="fill:#000000; fill-opacity:0.0; 
stroke:#000000; stroke-width:748.031; stroke-opacity:1; 
stroke-linecap:round; stroke-linejoin:round;">
<path d="M7529 3255
L6899 3255
" />
<path d="M7529 7744
L6899 7744
" />
</g>
<g >
</g>
<g style="fill:#000000; fill-opacity:0.0; 
stroke:#000000; stroke-width:748.031; stroke-opacity:1; 
stroke-linecap:round; stroke-linejoin:round;">
</g>
<g style="fill:#000000; fill-opacity:1.0; 
stroke:#000000; stroke-width:0; stroke-opacity:1; 
stroke-linecap:round; stroke-linejoin:round;">
<circle cx="20585.4" cy="4170.87" r="423.228" /> 
</g>
<g style="fill:#000000; fill-opacity:1.0; 
stroke:#000000; stroke-width:39.3701; stroke-opacity:1; 
stroke-linecap:round; stroke-linejoin:round;">
</g>
<g style="fill:#000000; fill-opacity:1.0; 
stroke:#000000; stroke-width:0; stroke-opacity:1; 
stroke-linecap:round; stroke-linejoin:round;">
<circle cx="17829.5" cy="4170.87" r="423.228" /> 
</g>
<g style="fill:#000000; fill-opacity:1.0; 
stroke:#000000; stroke-width:39.3701; stroke-opacity:1; 
stroke-linecap:round; stroke-linejoin:round;">
</g>
<g style="fill:#000000; fill-opacity:1.0; 
stroke:#000000; stroke-width:0; stroke-opacity:1; 
stroke-linecap:round; stroke-linejoin:round;">
<circle cx="17829.5" cy="2029.13" r="423.228" /> 
</g>
<g style="fill:#000000; fill-opacity:1.0; 
stroke:#000000; stroke-width:39.3701; stroke-opacity:1; 
stroke-linecap:round; stroke-linejoin:round;">
</g>
<g style="fill:#000000; fill-opacity:1.0; 
stroke:#000000; stroke-width:0; stroke-opacity:1; 
stroke-linecap:round; stroke-linejoin:round;">
<circle cx="20585.4" cy="2029.13" r="423.228" /> 
</g>
<g style="fill:#000000; fill-opacity:1.0; 
stroke:#000000; stroke-width:39.3701; stroke-opacity:1; 
stroke-linecap:round; stroke-linejoin:round;">
</g>
<g style="fill:#000000; fill-opacity:1.0; 
stroke:#000000; stroke-width:0; stroke-opacity:1; 
stroke-linecap:round; stroke-linejoin:round;">
<path style="fill:#000000; fill-opacity:1.0; 
stroke:#000000; stroke-width:0; stroke-opacity:1; 
stroke-linecap:round; stroke-linejoin:round;fill-rule:evenodd;"
d="M 20613,2785.04
20613,3414.96
19983.1,3414.96
19983.1,2785.04
Z" /> 
<circle cx="19510.6" cy="3100" r="314.961" /> 
</g>
<g style="fill:#000000; fill-opacity:1.0; 
stroke:#000000; stroke-width:39.3701; stroke-opacity:1; 
stroke-linecap:round; stroke-linejoin:round;">
</g>
<g style="fill:#000000; fill-opacity:1.0; 
stroke:#000000; stroke-width:0; stroke-opacity:1; 
stroke-linecap:round; stroke-linejoin:round;">
<circle cx="18723.2" cy="3100" r="314.961" /> 
</g>
<g style="fill:#000000; fill-opacity:1.0; 
stroke:#000000; stroke-width:39.3701; stroke-opacity:1; 
stroke-linecap:round; stroke-linejoin:round;">
</g>
<g style="fill:#000000; fill-opacity:1.0; 
stroke:#000000; stroke-width:0; stroke-opacity:1; 
stroke-linecap:round; stroke-linejoin:round;">
<circle cx="17935.8" cy="3100" r="314.961" /> 
</g>
<g style="fill:#000000; fill-opacity:1.0; 
stroke:#000000; stroke-width:39.3701; stroke-opacity:1; 
stroke-linecap:round; stroke-linejoin:round;">
</g>
<g >
</g>
<g >
</g>
<g >
</g>
<g >
</g>
<g >
</g>
<g >
</g>
<g >
</g>
<g style="fill:#000000; fill-opacity:1.0; 
stroke:#000000; stroke-width:39.3701; stroke-opacity:1; 
stroke-linecap:round; stroke-linejoin:round;">
</g>
<g style="fill:#000000; fill-opacity:1.0; 
stroke:#000000; stroke-width:98.4252; stroke-opacity:1; 
stroke-linecap:round; stroke-linejoin:round;">
</g>
<g style="fill:#000000; fill-opacity:0.0; 
stroke:#000000; stroke-width:98.4252; stroke-opacity:1; 
stroke-linecap:round; stroke-linejoin:round;">
<path d="M10898 3900
L10798 3800
" />
<path d="M10898 6500
L10898 3900
" />
<path d="M8302 8700
L8198 8595
" />
<path d="M8598 8700
L8302 8700
" />
<path d="M8198 8595
L8198 3600
" />
<path d="M8198 3600
L8598 3200
" />
<path d="M10698 3200
L11398 2500
" />
<path d="M8598 3200
L10698 3200
" />
</g>
<g style="fill:#000000; fill-opacity:0.0; 
stroke:#000000; stroke-width:393.701; stroke-opacity:1; 
stroke-linecap:round; stroke-linejoin:round;">
<path d="M8598 7800
L8910 7800
" />
<path d="M20298 3424
L20298 3100
" />
<path d="M19722 4000
L20298 3424
" />
<path d="M19198 4000
L19722 4000
" />
<path d="M19698 9500
L19698 7900
" />
<path d="M19298 9900
L19698 9500
" />
<path d="M10498 9900
L19298 9900
" />
<path d="M10210 9612
L10498 9900
" />
<path d="M19698 4024
L19722 4000
" />
<path d="M19698 7900
L19698 4024
" />
<path d="M19198 4000
L18198 5000
" />
<path d="M14698 5000
L14398 5300
" />
<path d="M18198 5000
L14698 5000
" />
<path d="M10210 9296
L10013 9100
" />
<path d="M10210 9612
L10210 9296
" />
<path d="M8910 7996
L10013 9100
" />
<path d="M8910 7800
L8910 7996
" />
</g>
<g style="fill:#000000; fill-opacity:0.0; 
stroke:#000000; stroke-width:98.4252; stroke-opacity:1; 
stroke-linecap:round; stroke-linejoin:round;">
<path d="M11698 3800
L11698 3400
" />
<path d="M11698 3400
L12098 3000
" />
<path d="M12098 3000
L12098 2200
" />
<path d="M12098 2200
L11898 2000
" />
<path d="M10898 2000
L10398 2500
" />
<path d="M11898 2000
L10898 2000
" />
<path d="M14498 2500
L15498 2500
" />
<path d="M16198 3200
L15498 2500
" />
<path d="M16198 4000
L16198 3200
" />
<path d="M9398 2500
L9398 2100
" />
<path d="M9398 2100
L9698 1800
" />
<path d="M12798 1800
L13498 2500
" />
<path d="M9698 1800
L10598 1800
" />
<path d="M10598 1800
L10798 1600
" />
<path d="M12598 1600
L12798 1800
" />
<path d="M10798 1600
L12598 1600
" />
<path d="M12598 3800
L12598 5400
" />
<path d="M12598 5400
L11498 6500
" />
<path d="M11498 8600
L10998 9100
" />
<path d="M11498 6500
L11498 8600
" />
</g>
<g >
</g>
<g style="fill:#000000; fill-opacity:0.0; 
stroke:#000000; stroke-width:98.4252; stroke-opacity:1; 
stroke-linecap:round; stroke-linejoin:round;">
<g >
</g>
<g style="fill:#000000; fill-opacity:1.0; 
stroke:#000000; stroke-width:100; stroke-opacity:1; 
stroke-linecap:round; stroke-linejoin:round;">
<path style="fill:#000000; fill-opacity:1.0; 
stroke:#000000; stroke-width:100; stroke-opacity:1; 
stroke-linecap:round; stroke-linejoin:round;fill-rule:evenodd;"
d="M 23220.1,10222
19469.7,10222
19501.8,10204.9
19557.3,10159.3
19568.8,10145.4
19943.4,9770.74
19957.3,9759.31
19968.8,9745.39
19968.8,9745.39
20003,9703.74
20036.8,9640.34
20039.8,9630.53
20057.7,9571.54
20063,9517.93
20063,9517.92
20064.8,9500
20063,9482.08
20063,8757.9
20387,8757.9
20420,8754.65
20451.7,8745.04
20480.9,8729.43
20506.5,8708.42
20527.5,8682.83
20543.1,8653.62
20552.7,8621.93
20555.9,8588.98
21218.5,8588.98
21223.3,8637.99
21237.6,8685.11
21260.8,8728.54
21292.1,8766.61
21330.1,8797.85
21373.6,8821.06
21420.7,8835.36
21469.7,8840.19
21947.7,8838.98
22010.2,8776.48
22010.2,7950
22110.2,7950
22110.2,8776.48
22172.7,8838.98
22650.8,8840.19
22699.8,8835.36
22746.9,8821.06
22790.4,8797.85
22828.4,8766.61
22859.7,8728.54
22882.9,8685.11
22897.2,8637.99
22902,8588.98
22900.8,8012.5
22838.3,7950
22110.2,7950
22010.2,7950
21282.2,7950
21219.7,8012.5
21218.5,8588.98
20555.9,8588.98
20555.9,7211.02
20552.7,7178.07
20543.1,7146.38
20527.5,7117.17
20506.5,7091.58
20480.9,7070.57
20451.7,7054.96
20420,7045.35
20387,7042.1
20063,7042.1
20063,6954.08
20094,6970.67
20141.1,6984.97
20190.2,6989.79
20766.6,6988.58
20829.1,6926.08
20829.1,6099.61
20929.1,6099.61
20929.1,6926.08
20991.6,6988.58
21354.1,6989.34
21330.1,7002.15
21292.1,7033.39
21260.8,7071.46
21237.6,7114.89
21223.3,7162.01
21218.5,7211.02
21219.7,7787.5
21282.2,7850
22010.2,7850
22010.2,7023.52
22110.2,7023.52
22110.2,7850
22838.3,7850
22900.8,7787.5
22902,7211.02
22897.2,7162.01
22882.9,7114.89
22859.7,7071.46
22828.4,7033.39
22790.4,7002.15
22746.9,6978.94
22699.8,6964.64
22650.8,6959.81
22172.7,6961.02
22110.2,7023.52
22010.2,7023.52
21947.7,6961.02
21683.5,6960.36
21707.7,6947.46
21745.7,6916.21
21777,6878.15
21800.2,6834.72
21814.5,6787.59
21819.3,6738.58
21818.1,6162.11
21755.6,6099.61
20929.1,6099.61
20829.1,6099.61
20821.3,6099.61
20821.3,5999.61
20829.1,5999.61
20829.1,5173.13
20929.1,5173.13
20929.1,5999.61
21755.6,5999.61
21818.1,5937.11
21818.8,5596.85
21950,5596.85
21954.8,5645.86
21969.1,5692.98
21992.3,5736.41
22023.5,5774.48
22061.6,5805.72
22105,5828.94
22152.2,5843.23
22201.2,5848.06
22285.5,5846.85
22348,5784.35
22348,5450
22448,5450
22448,5784.35
22510.5,5846.85
22594.9,5848.06
22643.9,5843.23
22691,5828.94
22734.4,5805.72
22772.5,5774.48
22803.8,5736.41
22827,5692.98
22841.3,5645.86
22846.1,5596.85
22844.9,5512.5
22782.4,5450
22448,5450
22348,5450
22013.7,5450
21951.2,5512.5
21950,5596.85
21818.8,5596.85
21819.3,5360.63
21814.5,5311.62
21800.2,5264.5
21777,5221.07
21762.3,5203.15
21950,5203.15
21951.2,5287.5
22013.7,5350
22348,5350
22348,5015.65
22448,5015.65
22448,5350
22782.4,5350
22844.9,5287.5
22846.1,5203.15
22841.3,5154.14
22827,5107.02
22803.8,5063.59
22772.5,5025.52
22734.4,4994.28
22691,4971.06
22643.9,4956.77
22594.9,4951.94
22510.5,4953.15
22448,5015.65
22348,5015.65
22285.5,4953.15
22201.2,4951.94
22152.2,4956.77
22105,4971.06
22061.6,4994.28
22023.5,5025.52
21992.3,5063.59
21969.1,5107.02
21954.8,5154.14
21950,5203.15
21762.3,5203.15
21745.7,5183
21707.7,5151.76
21664.2,5128.54
21617.1,5114.25
21568.1,5109.42
20991.6,5110.63
20929.1,5173.13
20829.1,5173.13
20766.6,5110.63
20190.2,5109.42
20141.1,5114.25
20094,5128.54
20063,5145.13
20063,4453.36
20126.1,4547.82
20208.5,4630.19
20305.3,4694.9
20412.9,4739.48
20527.2,4762.2
20643.7,4762.2
20757.9,4739.48
20865.5,4694.9
20962.4,4630.19
21044.8,4547.82
21109.5,4450.97
21154,4343.35
21176.8,4229.11
21176.8,4112.62
21154,3998.38
21109.5,3890.76
21044.8,3793.91
20962.4,3711.54
20865.5,3646.83
20757.9,3602.25
20647.3,3580.24
20677.6,3571.03
20706.8,3555.42
20732.4,3534.41
20753.4,3508.81
20769.1,3479.6
20778.7,3447.92
20781.9,3414.96
20781.9,2785.04
20778.7,2752.08
20769.1,2720.4
20753.4,2691.19
20732.4,2665.59
20706.8,2644.58
20677.6,2628.97
20647.3,2619.76
20757.9,2597.75
20865.5,2553.17
20962.4,2488.46
21044.8,2406.09
21109.5,2309.24
21154,2201.62
21176.8,2087.38
21176.8,1970.89
21154,1856.65
21109.5,1749.03
21044.8,1652.18
20962.4,1569.81
20865.5,1505.1
20757.9,1460.52
20643.7,1437.8
20527.2,1437.8
20412.9,1460.52
20305.3,1505.1
20208.5,1569.81
20126.1,1652.18
20061.4,1749.03
20016.8,1856.65
19994.1,1970.89
19994.1,2087.38
20016.8,2201.62
20061.4,2309.24
20126.1,2406.09
20208.5,2488.46
20305.3,2553.17
20412.9,2597.75
20505.3,2616.12
19983.1,2616.12
19950.1,2619.36
19918.4,2628.97
19889.2,2644.58
19863.6,2665.59
19842.6,2691.19
19827,2720.4
19824,2730.23
19818.6,2724.77
19739.5,2671.91
19651.5,2635.49
19558.2,2616.93
19463.1,2616.93
19369.7,2635.49
19281.8,2671.91
19202.7,2724.77
19135.4,2792.06
19116.9,2819.71
19098.5,2792.06
19031.2,2724.77
18952,2671.91
18864.1,2635.49
18770.8,2616.93
18675.7,2616.93
18582.3,2635.49
18494.4,2671.91
18415.3,2724.77
18352.6,2787.49
18326.7,2779.88
18006.5,3100
18326.7,3420.12
18352.6,3412.51
18415.3,3475.23
18494.4,3528.09
18582.3,3564.51
18675.7,3583.07
18770.8,3583.07
18864.1,3564.51
18952,3528.09
19031.2,3475.23
19098.5,3407.94
19116.9,3380.29
19135.4,3407.94
19202.7,3475.23
19281.8,3528.09
19369.7,3564.51
19463.1,3583.07
19558.2,3583.07
19638.9,3567.02
19570.9,3635.04
19216,3635.04
19198,3633.27
19180.1,3635.04
19180.1,3635.04
19126.5,3640.32
19057.7,3661.19
19042.3,3669.4
18994.3,3695.08
18952.6,3729.26
18952.6,3729.26
18938.7,3740.69
18927.3,3754.61
18412.9,4268.96
18420.9,4229.11
18420.9,4112.62
18398.1,3998.38
18353.6,3890.76
18288.9,3793.91
18206.5,3711.54
18109.6,3646.83
18098,3642.01
18178.5,3613.23
18227.8,3586.88
18255.9,3490.83
17935.8,3170.71
17615.7,3490.83
17643.9,3586.88
17670.7,3599.54
17657,3602.25
17549.4,3646.83
17452.6,3711.54
17370.2,3793.91
17305.5,3890.76
17260.9,3998.38
17238.2,4112.62
17238.2,4229.11
17260.9,4343.35
17305.5,4450.97
17370.2,4547.82
17452.6,4630.19
17459.8,4635.04
14716,4635.04
14698,4633.27
14680.1,4635.04
14680.1,4635.04
14626.5,4640.32
14557.7,4661.19
14494.3,4695.08
14452.6,4729.26
14452.6,4729.26
14438.7,4740.69
14427.3,4754.61
14247.7,4934.23
14201.2,4934.23
14168.2,4937.47
14136.5,4947.08
14107.3,4962.69
14081.7,4983.7
14060.7,5009.3
14045.1,5038.51
14035.5,5070.19
14032.3,5103.15
14032.3,5290.33
14031.3,5300
14032.3,5309.67
14032.3,5496.85
14035.5,5529.81
14045.1,5561.49
14060.7,5590.7
14081.7,5616.3
14107.3,5637.31
14136.5,5652.92
14168.2,5662.53
14201.2,5665.77
14388.4,5665.77
14398,5666.73
14407.7,5665.77
14594.9,5665.77
14627.8,5662.53
14659.5,5652.92
14688.7,5637.31
14714.3,5616.3
14735.3,5590.7
14750.9,5561.49
14760.6,5529.81
14763.8,5496.85
14763.8,5450.36
14849.2,5364.96
18180.1,5364.96
18198,5366.73
18216,5364.96
18216,5364.96
18269.6,5359.68
18338.4,5338.81
18401.8,5304.92
18457.3,5259.31
18468.8,5245.39
19333.1,4381.09
19333.1,7042.1
19009.1,7042.1
18976.1,7045.35
18944.4,7054.96
18915.2,7070.57
18889.6,7091.58
18868.6,7117.17
18853,7146.38
18843.4,7178.07
18840.1,7211.02
18840.1,8588.98
18843.4,8621.93
18853,8653.62
18868.6,8682.83
18889.6,8708.42
18915.2,8729.43
18944.4,8745.04
18976.1,8754.65
19009.1,8757.9
19333.1,8757.9
19333.1,9348.83
19146.9,9535.04
12417.5,9535.04
12448.6,9497.04
12471.9,9453.61
12486.1,9406.49
12491,9357.48
12489.8,9212.5
12427.3,9150
12032.3,9150
12032.3,9157.87
11932.3,9157.87
11932.3,9150
11537.3,9150
11474.8,9212.5
11473.6,9357.48
11478.4,9406.49
11492.7,9453.61
11515.9,9497.04
11547.1,9535.04
10649.2,9535.04
10575.6,9461.43
10575.6,9314.77
10577.4,9296.85
10575.6,9278.93
10575.6,9278.92
10570.3,9225.31
10549.4,9156.51
10515.6,9093.11
10486.8,9058.08
10572.4,9058.08
10572.4,9141.92
10588.8,9224.14
10620.9,9301.59
10667.5,9371.3
10726.7,9430.58
10796.4,9477.15
10873.9,9509.24
10956.1,9525.59
11039.9,9525.59
11122.2,9509.24
11199.6,9477.15
11269.3,9430.58
11328.6,9371.3
11375.2,9301.59
11407.3,9224.14
11423.6,9141.92
11423.6,9096.85
16050,9096.85
16054.8,9145.86
16069.1,9192.98
16092.3,9236.41
16123.5,9274.48
16161.6,9305.72
16205,9328.94
16252.2,9343.23
16301.2,9348.06
16385.5,9346.85
16448,9284.35
16448,8950
16548,8950
16548,9284.35
16610.5,9346.85
16694.9,9348.06
16743.9,9343.23
16791,9328.94
16834.4,9305.72
16872.5,9274.48
16903.8,9236.41
16927,9192.98
16941.3,9145.86
16946.1,9096.85
16944.9,9012.5
16882.4,8950
16548,8950
16448,8950
16113.7,8950
16051.2,9012.5
16050,9096.85
11423.6,9096.85
11423.6,9058.08
11411,8994.41
11474.3,8931.04
11474.8,8987.5
11537.3,9050
11932.3,9050
11932.3,8655.02
12032.3,8655.02
12032.3,9050
12427.3,9050
12489.8,8987.5
12491,8842.52
12486.1,8793.51
12471.9,8746.39
12448.6,8702.96
12417.4,8664.89
12379.3,8633.65
12335.9,8610.43
12288.8,8596.14
12239.8,8591.31
12094.8,8592.52
12032.3,8655.02
11932.3,8655.02
11869.8,8592.52
11724.8,8591.31
11715.6,8592.21
11715.4,8589.33
11715.4,8496.85
14250,8496.85
14254.8,8545.86
14269.1,8592.98
14292.3,8636.41
14323.5,8674.48
14361.6,8705.72
14405,8728.94
14452.2,8743.23
14501.2,8748.06
14585.5,8746.85
14648,8684.35
14648,8350
14748,8350
14748,8684.35
14810.5,8746.85
14894.9,8748.06
14943.9,8743.23
14991,8728.94
15034.4,8705.72
15037.6,8703.15
16050,8703.15
16051.2,8787.5
16113.7,8850
16448,8850
16448,8515.65
16548,8515.65
16548,8850
16882.4,8850
16944.9,8787.5
16946.1,8703.15
16941.3,8654.14
16927,8607.02
16903.8,8563.59
16872.5,8525.52
16834.4,8494.28
16791,8471.06
16743.9,8456.77
16694.9,8451.94
16610.5,8453.15
16548,8515.65
16448,8515.65
16385.5,8453.15
16301.2,8451.94
16252.2,8456.77
16205,8471.06
16161.6,8494.28
16123.5,8525.52
16092.3,8563.59
16069.1,8607.02
16054.8,8654.14
16050,8703.15
15037.6,8703.15
15072.5,8674.48
15103.8,8636.41
15127,8592.98
15141.3,8545.86
15146.1,8496.85
15144.9,8412.5
15082.4,8350
14748,8350
14648,8350
14313.7,8350
14251.2,8412.5
14250,8496.85
11715.4,8496.85
11715.4,8103.15
14250,8103.15
14251.2,8187.5
14313.7,8250
14648,8250
14648,7915.65
14748,7915.65
14748,8250
15082.4,8250
15144.9,8187.5
15146.1,8103.15
15141.3,8054.14
15127,8007.02
15103.8,7963.59
15072.5,7925.52
15034.4,7894.28
14991,7871.06
14943.9,7856.77
14894.9,7851.94
14810.5,7853.15
14748,7915.65
14648,7915.65
14585.5,7853.15
14501.2,7851.94
14452.2,7856.77
14405,7871.06
14361.6,7894.28
14323.5,7925.52
14292.3,7963.59
14269.1,8007.02
14254.8,8054.14
14250,8103.15
11715.4,8103.15
11715.4,6590.02
12070.4,6234.97
17737.8,6234.97
17737.8,6365.03
17763.2,6492.58
17812.9,6612.74
17885.2,6720.88
17977.2,6812.84
18085.3,6885.09
18205.4,6934.86
18333,6960.24
18463.1,6960.24
18590.6,6934.86
18710.8,6885.09
18818.9,6812.84
18910.9,6720.88
18983.1,6612.74
19032.9,6492.58
19058.3,6365.03
19058.3,6234.97
19032.9,6107.42
18983.1,5987.26
18910.9,5879.12
18818.9,5787.16
18710.8,5714.91
18590.6,5665.14
18463.1,5639.76
18333,5639.76
18205.4,5665.14
18085.3,5714.91
17977.2,5787.16
17885.2,5879.12
17812.9,5987.26
17763.2,6107.42
17737.8,6234.97
12070.4,6234.97
12744.2,5561.22
12752.4,5554.41
12779.6,5521.32
12792.7,5496.85
12950,5496.85
12954.8,5545.86
12969.1,5592.98
12992.3,5636.41
13023.5,5674.48
13061.6,5705.72
13105,5728.94
13152.2,5743.23
13201.2,5748.06
13285.5,5746.85
13348,5684.35
13348,5350
13448,5350
13448,5684.35
13510.5,5746.85
13594.9,5748.06
13643.9,5743.23
13691,5728.94
13734.4,5705.72
13772.5,5674.48
13803.8,5636.41
13827,5592.98
13841.3,5545.86
13846.1,5496.85
13844.9,5412.5
13782.4,5350
13448,5350
13348,5350
13013.7,5350
12951.2,5412.5
12950,5496.85
12792.7,5496.85
12799.8,5483.57
12812.2,5442.6
12815.4,5410.67
12816.4,5400
12815.4,5389.33
12815.4,5103.15
12950,5103.15
12951.2,5187.5
13013.7,5250
13348,5250
13348,4915.65
13448,4915.65
13448,5250
13782.4,5250
13844.9,5187.5
13846.1,5103.15
13841.3,5054.14
13827,5007.02
13803.8,4963.59
13772.5,4925.52
13734.4,4894.28
13691,4871.06
13643.9,4856.77
13594.9,4851.94
13510.5,4853.15
13448,4915.65
13348,4915.65
13285.5,4853.15
13201.2,4851.94
13152.2,4856.77
13105,4871.06
13061.6,4894.28
13023.5,4925.52
12992.3,4963.59
12969.1,5007.02
12954.8,5054.14
12950,5103.15
12815.4,5103.15
12815.4,4163.76
12827.8,4162.53
12859.5,4152.92
12888.7,4137.31
12914.3,4116.3
12935.3,4090.7
12950.9,4061.49
12960.6,4029.81
12963.8,3996.85
12963.8,3603.15
12960.6,3570.19
12950.9,3538.51
12935.3,3509.3
12914.3,3483.7
12888.7,3462.69
12859.5,3447.08
12827.8,3437.47
12794.9,3434.23
12401.2,3434.23
12368.2,3437.47
12336.5,3447.08
12307.3,3462.69
12281.7,3483.7
12260.7,3509.3
12245.1,3538.51
12235.5,3570.19
12232.3,3603.15
12232.3,3996.85
12235.5,4029.81
12245.1,4061.49
12260.7,4090.7
12281.7,4116.3
12307.3,4137.31
12336.5,4152.92
12368.2,4162.53
12380.7,4163.76
12380.7,5309.98
11351.9,6338.78
11343.6,6345.59
11316.5,6378.68
11296.3,6416.43
11283.9,6457.4
11280.7,6489.33
11279.7,6500
11280.7,6510.67
11280.7,8509.98
11103.6,8687.07
11039.9,8674.41
10956.1,8674.41
10873.9,8690.76
10796.4,8722.85
10726.7,8769.42
10667.5,8828.7
10620.9,8898.41
10588.8,8975.86
10572.4,9058.08
10486.8,9058.08
10469.9,9037.54
10456,9026.11
10427.3,8997.38
10423,8975.86
10390.9,8898.41
10344.4,8828.7
10285.1,8769.42
10215.4,8722.85
10137.9,8690.76
10116.4,8686.48
9275.59,7845.68
9275.59,7817.93
9277.36,7800
9270.31,7728.46
9249.44,7659.66
9215.55,7596.26
9169.94,7540.69
9114.37,7495.08
9050.97,7461.19
8982.18,7440.32
8928.56,7435.04
8928.56,7435.04
8910.63,7433.27
8892.7,7435.04
8803.14,7435.04
8794.88,7434.23
8415.35,7434.23
8415.35,3690.02
8502.22,3603.15
10432.3,3603.15
10432.3,3996.85
10435.5,4029.81
10445.1,4061.49
10460.7,4090.7
10481.7,4116.3
10507.3,4137.31
10536.5,4152.92
10568.2,4162.53
10601.2,4165.77
10680.7,4165.77
10680.7,6136.24
10668.2,6137.47
10636.5,6147.08
10607.3,6162.69
10581.7,6183.7
10560.7,6209.3
10545.1,6238.51
10535.5,6270.19
10532.3,6303.15
10532.3,6696.85
10535.5,6729.81
10545.1,6761.49
10560.7,6790.7
10581.7,6816.3
10607.3,6837.31
10636.5,6852.92
10668.2,6862.53
10701.2,6865.77
11094.9,6865.77
11127.8,6862.53
11159.5,6852.92
11188.7,6837.31
11214.3,6816.3
11235.3,6790.7
11250.9,6761.49
11260.6,6729.81
11263.8,6696.85
11263.8,6303.15
11260.6,6270.19
11250.9,6238.51
11235.3,6209.3
11214.3,6183.7
11188.7,6162.69
11159.5,6147.08
11127.8,6137.47
11115.4,6136.24
11115.4,4115.05
11135.3,4090.7
11150.9,4061.49
11160.6,4029.81
11163.8,3996.85
11163.8,3603.15
11160.6,3570.19
11150.9,3538.51
11135.3,3509.3
11114.3,3483.7
11088.7,3462.69
11059.5,3447.08
11027.8,3437.47
10994.9,3434.23
10601.2,3434.23
10568.2,3437.47
10536.5,3447.08
10507.3,3462.69
10481.7,3483.7
10460.7,3509.3
10445.1,3538.51
10435.5,3570.19
10432.3,3603.15
8502.22,3603.15
8688.05,3417.32
10687.4,3417.32
10698,3418.37
10708.7,3417.32
10708.7,3417.32
10740.6,3414.18
10781.6,3401.75
10819.4,3381.57
10852.4,3354.41
10859.3,3346.12
11270.3,2935.02
11353.6,2951.57
11442.5,2951.57
11529.8,2934.22
11611.9,2900.18
11685.9,2850.76
11748.8,2787.86
11798.2,2713.9
11832.3,2631.72
11849.6,2544.48
11849.6,2455.52
11832.3,2368.28
11798.2,2286.1
11752.3,2217.32
11808,2217.32
11880.7,2290.02
11880.7,2909.98
11551.9,3238.78
11543.6,3245.59
11520.5,3273.76
11516.5,3278.68
11496.3,3316.43
11483.9,3357.4
11479.7,3400
11480.7,3410.68
11480.7,3436.24
11468.2,3437.47
11436.5,3447.08
11407.3,3462.69
11381.7,3483.7
11360.7,3509.3
11345.1,3538.51
11335.5,3570.19
11332.3,3603.15
11332.3,3996.85
11335.5,4029.81
11345.1,4061.49
11360.7,4090.7
11381.7,4116.3
11407.3,4137.31
11436.5,4152.92
11468.2,4162.53
11501.2,4165.77
11894.9,4165.77
11927.8,4162.53
11959.5,4152.92
11988.7,4137.31
12014.3,4116.3
12035.3,4090.7
12050.9,4061.49
12060.6,4029.81
12063.8,3996.85
12063.8,3603.15
12060.6,3570.19
12050.9,3538.51
12035.3,3509.3
12014.3,3483.7
11988.7,3462.69
11959.5,3447.08
11958.6,3446.8
12244.2,3161.22
12252.4,3154.41
12279.6,3121.32
12299.8,3083.57
12312.2,3042.6
12315.4,3010.67
12315.4,3010.67
12316.4,3000
12315.4,2989.33
12315.4,2210.67
12316.4,2200
12315.4,2189.33
12315.4,2189.33
12312.2,2157.4
12299.8,2116.43
12279.6,2078.68
12252.4,2045.59
12244.2,2038.78
12059.3,1853.88
12052.4,1845.59
12019.4,1818.43
12017.3,1817.32
12508,1817.32
12651.9,1961.22
12651.9,1961.22
13063,2372.32
13046.5,2455.52
13046.5,2544.48
13063.8,2631.72
13097.9,2713.9
13147.3,2787.86
13210.2,2850.76
13284.1,2900.18
13366.3,2934.22
13453.6,2951.57
13542.5,2951.57
13629.8,2934.22
13711.9,2900.18
13785.9,2850.76
13848.8,2787.86
13898.2,2713.9
13932.3,2631.72
13949.6,2544.48
13949.6,2455.52
14046.5,2455.52
14046.5,2544.48
14063.8,2631.72
14097.9,2713.9
14147.3,2787.86
14210.2,2850.76
14284.1,2900.18
14366.3,2934.22
14453.6,2951.57
14542.5,2951.57
14629.8,2934.22
14711.9,2900.18
14785.9,2850.76
14848.8,2787.86
14895.9,2717.32
15100.1,2717.32
15147.3,2787.86
15210.2,2850.76
15284.1,2900.18
15366.3,2934.22
15453.6,2951.57
15542.5,2951.57
15625.7,2935.02
15980.7,3290.02
15980.7,3636.24
15968.2,3637.47
15936.5,3647.08
15907.3,3662.69
15881.7,3683.7
15860.7,3709.3
15845.1,3738.51
15835.5,3770.19
15832.3,3803.15
15832.3,4196.85
15835.5,4229.81
15845.1,4261.49
15860.7,4290.7
15881.7,4316.3
15907.3,4337.31
15936.5,4352.92
15968.2,4362.53
16001.2,4365.77
16394.9,4365.77
16427.8,4362.53
16459.5,4352.92
16488.7,4337.31
16514.3,4316.3
16535.3,4290.7
16550.9,4261.49
16560.6,4229.81
16563.8,4196.85
16563.8,3803.15
16560.6,3770.19
16550.9,3738.51
16535.3,3709.3
16514.3,3683.7
16488.7,3662.69
16459.5,3647.08
16427.8,3637.47
16415.4,3636.24
16415.4,3210.67
16416.4,3200
16416.1,3196.85
16450,3196.85
16454.8,3245.86
16469.1,3292.98
16492.3,3336.41
16523.5,3374.48
16561.6,3405.72
16605,3428.94
16652.2,3443.23
16701.2,3448.06
16785.5,3446.85
16848,3384.35
16848,3050
16948,3050
16948,3384.35
17010.5,3446.85
17094.9,3448.06
17143.9,3443.23
17191,3428.94
17234.4,3405.72
17272.5,3374.48
17303.8,3336.41
17327,3292.98
17341.3,3245.86
17346.1,3196.85
17345.1,3127.76
17368.8,3127.76
17385.1,3237.85
17422.6,3342.63
17448.9,3391.93
17545,3420.12
17865.1,3100
17545,2779.88
17448.9,2808.07
17401.4,2908.66
17374.3,3016.61
17368.8,3127.76
17345.1,3127.76
17344.9,3112.5
17282.4,3050
16948,3050
16848,3050
16513.7,3050
16451.2,3112.5
16450,3196.85
16416.1,3196.85
16412.2,3157.4
16399.8,3116.43
16379.6,3078.68
16359.2,3053.88
16359.2,3053.88
16352.4,3045.59
16344.2,3038.78
16108.5,2803.15
16450,2803.15
16451.2,2887.5
16513.7,2950
16848,2950
16848,2615.65
16948,2615.65
16948,2950
17282.4,2950
17344.9,2887.5
17346.1,2803.15
17341.3,2754.14
17327,2707.02
17303.8,2663.59
17272.5,2625.52
17234.4,2594.28
17191,2571.06
17143.9,2556.77
17094.9,2551.94
17010.5,2553.15
16948,2615.65
16848,2615.65
16785.5,2553.15
16701.2,2551.94
16652.2,2556.77
16605,2571.06
16561.6,2594.28
16523.5,2625.52
16492.3,2663.59
16469.1,2707.02
16454.8,2754.14
16450,2803.15
16108.5,2803.15
15933.1,2627.68
15949.6,2544.48
15949.6,2455.52
15932.3,2368.28
15898.2,2286.1
15848.8,2212.14
15785.9,2149.24
15711.9,2099.82
15629.8,2065.78
15542.5,2048.43
15453.6,2048.43
15366.3,2065.78
15284.1,2099.82
15210.2,2149.24
15147.3,2212.14
15100.1,2282.68
14895.9,2282.68
14848.8,2212.14
14785.9,2149.24
14711.9,2099.82
14629.8,2065.78
14542.5,2048.43
14453.6,2048.43
14366.3,2065.78
14284.1,2099.82
14210.2,2149.24
14147.3,2212.14
14097.9,2286.1
14063.8,2368.28
14046.5,2455.52
13949.6,2455.52
13932.3,2368.28
13898.2,2286.1
13848.8,2212.14
13785.9,2149.24
13711.9,2099.82
13629.8,2065.78
13542.5,2048.43
13453.6,2048.43
13370.3,2064.98
13276.3,1970.89
17238.2,1970.89
17238.2,2087.38
17260.9,2201.62
17305.5,2309.24
17370.2,2406.09
17452.6,2488.46
17549.4,2553.17
17657,2597.75
17668.4,2600.01
17643.9,2613.12
17615.7,2709.17
17935.8,3029.29
18255.9,2709.17
18227.8,2613.12
18127.2,2565.52
18097.7,2558.13
18109.6,2553.17
18206.5,2488.46
18288.9,2406.09
18353.6,2309.24
18398.1,2201.62
18420.9,2087.38
18420.9,1970.89
18398.1,1856.65
18353.6,1749.03
18288.9,1652.18
18206.5,1569.81
18109.6,1505.1
18002,1460.52
17887.8,1437.8
17771.3,1437.8
17657,1460.52
17549.4,1505.1
17452.6,1569.81
17370.2,1652.18
17305.5,1749.03
17260.9,1856.65
17238.2,1970.89
13276.3,1970.89
12959.3,1653.88
12959.2,1653.88
12759.3,1453.88
12752.4,1445.59
12719.4,1418.43
12681.6,1398.25
12640.6,1385.82
12608.7,1382.68
12608.7,1382.68
12598,1381.63
12587.4,1382.68
10808.7,1382.68
10798,1381.63
10787.4,1382.68
10787.4,1382.68
10755.4,1385.82
10714.5,1398.25
10676.7,1418.43
10643.6,1445.59
10636.8,1453.88
10508,1582.68
9708.7,1582.68
9698.03,1581.63
9687.36,1582.68
9655.43,1585.82
9614.46,1598.25
9576.71,1618.43
9543.62,1645.59
9536.81,1653.88
9251.91,1938.78
9243.62,1945.59
9230.79,1961.22
9216.46,1978.68
9196.28,2016.43
9183.85,2057.4
9179.66,2100
9179.92,2102.64
9110.17,2149.24
9047.27,2212.14
8997.85,2286.1
8963.81,2368.28
8946.46,2455.52
8946.46,2544.48
8963.81,2631.72
8997.85,2713.9
9047.27,2787.86
9110.17,2850.76
9184.13,2900.18
9266.31,2934.22
9353.56,2951.57
9442.51,2951.57
9529.75,2934.22
9611.93,2900.18
9685.89,2850.76
9748.79,2787.86
9798.21,2713.9
9832.25,2631.72
9849.61,2544.48
9849.61,2455.52
9832.25,2368.28
9798.21,2286.1
9748.79,2212.14
9685.89,2149.24
9668.05,2137.32
9788.05,2017.32
10573.4,2017.32
10525.7,2064.98
10442.5,2048.43
10353.6,2048.43
10266.3,2065.78
10184.1,2099.82
10110.2,2149.24
10047.3,2212.14
9997.85,2286.1
9963.81,2368.28
9946.46,2455.52
9946.46,2544.48
9963.81,2631.72
9997.85,2713.9
10047.3,2787.86
10110.2,2850.76
10184.1,2900.18
10266.3,2934.22
10353.6,2951.57
10442.5,2951.57
10529.8,2934.22
10611.9,2900.18
10685.9,2850.76
10748.8,2787.86
10798.2,2713.9
10832.3,2631.72
10849.6,2544.48
10849.6,2455.52
10833.1,2372.32
10988,2217.32
11043.8,2217.32
10997.9,2286.1
10963.8,2368.28
10946.5,2455.52
10946.5,2544.48
10963,2627.68
10608,2982.68
8608.7,2982.68
8598.03,2981.63
8587.36,2982.68
8587.36,2982.68
8555.43,2985.82
8514.46,2998.25
8476.71,3018.43
8443.62,3045.59
8436.81,3053.88
8051.91,3438.78
8043.62,3445.59
8035.51,3455.46
8063.81,3362.18
8074.28,3255.91
8063.81,3149.63
8032.81,3047.44
7982.47,2953.26
7914.72,2870.71
7832.17,2802.96
7737.99,2752.62
7635.8,2721.62
7556.16,2713.78
6872.98,2713.78
6793.33,2721.62
6691.14,2752.62
6596.96,2802.96
6514.41,2870.71
6446.66,2953.26
6396.32,3047.44
6365.33,3149.63
6354.86,3255.91
6365.33,3362.18
6396.32,3464.37
6446.66,3558.55
6514.41,3641.1
6596.96,3708.85
6691.14,3759.19
6793.33,3790.19
6872.98,3798.03
7556.16,3798.03
7635.8,3790.19
7737.99,3759.19
7832.17,3708.85
7914.72,3641.1
7982.47,3558.55
7984.86,3554.08
7983.85,3557.4
7979.66,3600
7980.71,3610.68
7980.71,7439.3
7914.72,7358.9
7832.17,7291.15
7737.99,7240.81
7635.8,7209.81
7556.16,7201.97
6872.98,7201.97
6793.33,7209.81
6691.14,7240.81
6596.96,7291.15
6514.41,7358.9
6446.66,7441.45
6396.32,7535.63
6365.33,7637.82
6354.86,7744.09
6365.33,7850.37
6396.32,7952.56
6446.66,8046.74
6514.41,8129.29
6596.96,8197.04
6691.14,8247.38
6793.33,8278.38
6872.98,8286.22
7556.16,8286.22
7635.8,8278.38
7737.99,8247.38
7832.17,8197.04
7914.72,8129.29
7980.71,8048.89
7980.71,8584.6
7979.66,8595.28
7980.71,8605.95
7980.71,8605.95
7983.85,8637.88
7996.28,8678.84
8016.46,8716.6
8043.62,8749.69
8051.91,8756.5
8141.54,8846.12
8148.34,8854.41
8181.43,8881.57
8212.93,8898.41
8219.19,8901.75
8233.16,8905.99
8235.5,8929.81
8245.12,8961.49
8260.73,8990.7
8281.73,9016.3
8307.33,9037.31
8336.54,9052.92
8368.23,9062.53
8401.18,9065.77
8794.88,9065.77
8827.84,9062.53
8859.53,9052.92
8888.73,9037.31
8914.33,9016.3
8935.34,8990.7
8950.95,8961.49
8960.56,8929.81
8963.81,8896.85
8963.81,8566.16
9600.26,9202.62
9604.54,9224.14
9636.63,9301.59
9683.2,9371.3
9742.48,9430.58
9812.19,9477.15
9845.67,9491.02
9845.67,9594.67
9843.9,9612.6
9845.67,9630.52
9845.67,9630.53
9850.95,9684.14
9869.53,9745.39
9871.82,9752.94
9905.71,9816.34
9939.89,9857.99
9951.32,9871.91
9965.24,9883.34
10227.3,10145.4
10238.7,10159.3
10252.6,10170.7
10252.6,10170.7
10294.3,10204.9
10326.3,10222
5975.98,10222
5975.98,9134.97
6437.8,9134.97
6437.8,9265.03
6463.17,9392.58
6512.94,9512.74
6585.19,9620.88
6677.16,9712.84
6785.29,9785.09
6905.45,9834.86
7033,9860.24
7163.06,9860.24
7290.62,9834.86
7410.77,9785.09
7518.91,9712.84
7610.87,9620.88
7683.13,9512.74
7732.9,9392.58
7758.27,9265.03
7758.27,9134.97
7732.9,9007.42
7683.13,8887.26
7610.87,8779.12
7518.91,8687.16
7410.77,8614.91
7290.62,8565.14
7163.06,8539.76
7033,8539.76
6905.45,8565.14
6785.29,8614.91
6677.16,8687.16
6585.19,8779.12
6512.94,8887.26
6463.17,9007.42
6437.8,9134.97
5975.98,9134.97
5975.98,6367.63
6829.92,6367.63
6829.92,6443.4
6844.7,6517.71
6873.7,6587.71
6915.79,6650.71
6969.37,6704.29
7032.37,6746.38
7102.37,6775.38
7176.68,6790.16
7252.45,6790.16
7326.76,6775.38
7396.77,6746.38
7459.76,6704.29
7513.34,6650.71
7555.44,6587.71
7584.43,6517.71
7599.21,6443.4
7599.21,6367.63
7584.43,6293.31
7555.44,6223.31
7513.34,6160.31
7459.76,6106.74
7396.77,6064.64
7326.76,6035.65
7252.45,6020.87
7176.68,6020.87
7102.37,6035.65
7032.37,6064.64
6969.37,6106.74
6915.79,6160.31
6873.7,6223.31
6844.7,6293.31
6829.92,6367.63
5975.98,6367.63
5975.98,4556.6
6829.92,4556.6
6829.92,4632.37
6844.7,4706.69
6873.7,4776.69
6915.79,4839.69
6969.37,4893.26
7032.37,4935.36
7102.37,4964.35
7176.68,4979.13
7252.45,4979.13
7326.76,4964.35
7396.77,4935.36
7459.76,4893.26
7513.34,4839.69
7555.44,4776.69
7584.43,4706.69
7599.21,4632.37
7599.21,4556.6
7584.43,4482.29
7555.44,4412.29
7513.34,4349.29
7459.76,4295.71
7396.77,4253.62
7326.76,4224.62
7252.45,4209.84
7176.68,4209.84
7102.37,4224.62
7032.37,4253.62
6969.37,4295.71
6915.79,4349.29
6873.7,4412.29
6844.7,4482.29
6829.92,4556.6
5975.98,4556.6
5975.98,1734.97
6437.8,1734.97
6437.8,1865.03
6463.17,1992.58
6512.94,2112.74
6585.19,2220.88
6677.16,2312.84
6785.29,2385.09
6905.45,2434.86
7033,2460.24
7163.06,2460.24
7290.62,2434.86
7410.77,2385.09
7518.91,2312.84
7610.87,2220.88
7683.13,2112.74
7732.9,1992.58
7758.27,1865.03
7758.27,1734.97
7732.9,1607.42
7683.13,1487.26
7610.87,1379.12
7518.91,1287.16
7410.77,1214.91
7290.62,1165.14
7163.06,1139.76
7033,1139.76
6905.45,1165.14
6785.29,1214.91
6677.16,1287.16
6585.19,1379.12
6512.94,1487.26
6463.17,1607.42
6437.8,1734.97
5975.98,1734.97
5975.98,877.953
23220.1,877.953
Z" /> 
</g>
</g>
</g>
<g style="fill:#FFFFFF; fill-opacity:1.0; 
stroke:#FFFFFF; stroke-width:100; stroke-opacity:1; 
stroke-linecap:round; stroke-linejoin:round;">
</g>
<g style="fill:#FFFFFF; fill-opacity:1.0; 
stroke:#FFFFFF; stroke-width:0; stroke-opacity:1; 
stroke-linecap:round; stroke-linejoin:round;">
<circle cx="10013.8" cy="9100" r="157.48" /> 
</g>
<g style="fill:#FFFFFF; fill-opacity:1.0; 
stroke:#FFFFFF; stroke-width:39.3701; stroke-opacity:1; 
stroke-linecap:round; stroke-linejoin:round;">
</g>
<g style="fill:#FFFFFF; fill-opacity:1.0; 
stroke:#FFFFFF; stroke-width:0; stroke-opacity:1; 
stroke-linecap:round; stroke-linejoin:round;">
<circle cx="10998" cy="9100" r="157.48" /> 
</g>
<g style="fill:#FFFFFF; fill-opacity:1.0; 
stroke:#FFFFFF; stroke-width:39.3701; stroke-opacity:1; 
stroke-linecap:round; stroke-linejoin:round;">
</g>
<g style="fill:#FFFFFF; fill-opacity:1.0; 
stroke:#FFFFFF; stroke-width:0; stroke-opacity:1; 
stroke-linecap:round; stroke-linejoin:round;">
<circle cx="11982.3" cy="9100" r="157.48" /> 
</g>
<g style="fill:#FFFFFF; fill-opacity:1.0; 
stroke:#FFFFFF; stroke-width:39.3701; stroke-opacity:1; 
stroke-linecap:round; stroke-linejoin:round;">
</g>
<g style="fill:#FFFFFF; fill-opacity:1.0; 
stroke:#FFFFFF; stroke-width:0; stroke-opacity:1; 
stroke-linecap:round; stroke-linejoin:round;">
<circle cx="7098.03" cy="1800" r="492.126" /> 
</g>
<g style="fill:#FFFFFF; fill-opacity:1.0; 
stroke:#FFFFFF; stroke-width:39.3701; stroke-opacity:1; 
stroke-linecap:round; stroke-linejoin:round;">
</g>
<g style="fill:#FFFFFF; fill-opacity:1.0; 
stroke:#FFFFFF; stroke-width:0; stroke-opacity:1; 
stroke-linecap:round; stroke-linejoin:round;">
<circle cx="16498" cy="8900" r="98.4252" /> 
</g>
<g style="fill:#FFFFFF; fill-opacity:1.0; 
stroke:#FFFFFF; stroke-width:39.3701; stroke-opacity:1; 
stroke-linecap:round; stroke-linejoin:round;">
</g>
<g style="fill:#FFFFFF; fill-opacity:1.0; 
stroke:#FFFFFF; stroke-width:0; stroke-opacity:1; 
stroke-linecap:round; stroke-linejoin:round;">
<circle cx="22398" cy="5400" r="98.4252" /> 
</g>
<g style="fill:#FFFFFF; fill-opacity:1.0; 
stroke:#FFFFFF; stroke-width:39.3701; stroke-opacity:1; 
stroke-linecap:round; stroke-linejoin:round;">
</g>
<g style="fill:#FFFFFF; fill-opacity:1.0; 
stroke:#FFFFFF; stroke-width:0; stroke-opacity:1; 
stroke-linecap:round; stroke-linejoin:round;">
<circle cx="7098.03" cy="9200" r="492.126" /> 
</g>
<g style="fill:#FFFFFF; fill-opacity:1.0; 
stroke:#FFFFFF; stroke-width:39.3701; stroke-opacity:1; 
stroke-linecap:round; stroke-linejoin:round;">
</g>
<g style="fill:#FFFFFF; fill-opacity:1.0; 
stroke:#FFFFFF; stroke-width:0; stroke-opacity:1; 
stroke-linecap:round; stroke-linejoin:round;">
<circle cx="18398" cy="6300" r="492.126" /> 
</g>
<g style="fill:#FFFFFF; fill-opacity:1.0; 
stroke:#FFFFFF; stroke-width:39.3701; stroke-opacity:1; 
stroke-linecap:round; stroke-linejoin:round;">
</g>
<g style="fill:#FFFFFF; fill-opacity:1.0; 
stroke:#FFFFFF; stroke-width:0; stroke-opacity:1; 
stroke-linecap:round; stroke-linejoin:round;">
<circle cx="13398" cy="5300" r="98.4252" /> 
</g>
<g style="fill:#FFFFFF; fill-opacity:1.0; 
stroke:#FFFFFF; stroke-width:39.3701; stroke-opacity:1; 
stroke-linecap:round; stroke-linejoin:round;">
</g>
<g style="fill:#FFFFFF; fill-opacity:1.0; 
stroke:#FFFFFF; stroke-width:0; stroke-opacity:1; 
stroke-linecap:round; stroke-linejoin:round;">
<circle cx="14698" cy="8300" r="98.4252" /> 
</g>
<g style="fill:#FFFFFF; fill-opacity:1.0; 
stroke:#FFFFFF; stroke-width:39.3701; stroke-opacity:1; 
stroke-linecap:round; stroke-linejoin:round;">
</g>
<g style="fill:#FFFFFF; fill-opacity:1.0; 
stroke:#FFFFFF; stroke-width:0; stroke-opacity:1; 
stroke-linecap:round; stroke-linejoin:round;">
<circle cx="16198" cy="4000" r="98.4252" /> 
</g>
<g style="fill:#FFFFFF; fill-opacity:1.0; 
stroke:#FFFFFF; stroke-width:39.3701; stroke-opacity:1; 
stroke-linecap:round; stroke-linejoin:round;">
</g>
<g style="fill:#FFFFFF; fill-opacity:1.0; 
stroke:#FFFFFF; stroke-width:0; stroke-opacity:1; 
stroke-linecap:round; stroke-linejoin:round;">
<circle cx="10898" cy="6500" r="98.4252" /> 
</g>
<g style="fill:#FFFFFF; fill-opacity:1.0; 
stroke:#FFFFFF; stroke-width:39.3701; stroke-opacity:1; 
stroke-linecap:round; stroke-linejoin:round;">
</g>
<g style="fill:#FFFFFF; fill-opacity:1.0; 
stroke:#FFFFFF; stroke-width:0; stroke-opacity:1; 
stroke-linecap:round; stroke-linejoin:round;">
<circle cx="10798" cy="3800" r="98.4252" /> 
</g>
<g style="fill:#FFFFFF; fill-opacity:1.0; 
stroke:#FFFFFF; stroke-width:39.3701; stroke-opacity:1; 
stroke-linecap:round; stroke-linejoin:round;">
</g>
<g style="fill:#FFFFFF; fill-opacity:1.0; 
stroke:#FFFFFF; stroke-width:0; stroke-opacity:1; 
stroke-linecap:round; stroke-linejoin:round;">
<circle cx="11698" cy="3800" r="98.4252" /> 
</g>
<g style="fill:#FFFFFF; fill-opacity:1.0; 
stroke:#FFFFFF; stroke-width:39.3701; stroke-opacity:1; 
stroke-linecap:round; stroke-linejoin:round;">
</g>
<g style="fill:#FFFFFF; fill-opacity:1.0; 
stroke:#FFFFFF; stroke-width:0; stroke-opacity:1; 
stroke-linecap:round; stroke-linejoin:round;">
<circle cx="12598" cy="3800" r="98.4252" /> 
</g>
<g style="fill:#FFFFFF; fill-opacity:1.0; 
stroke:#FFFFFF; stroke-width:39.3701; stroke-opacity:1; 
stroke-linecap:round; stroke-linejoin:round;">
</g>
<g style="fill:#FFFFFF; fill-opacity:1.0; 
stroke:#FFFFFF; stroke-width:0; stroke-opacity:1; 
stroke-linecap:round; stroke-linejoin:round;">
<circle cx="8598.03" cy="8700" r="98.4252" /> 
</g>
<g style="fill:#FFFFFF; fill-opacity:1.0; 
stroke:#FFFFFF; stroke-width:39.3701; stroke-opacity:1; 
stroke-linecap:round; stroke-linejoin:round;">
</g>
<g style="fill:#FFFFFF; fill-opacity:1.0; 
stroke:#FFFFFF; stroke-width:0; stroke-opacity:1; 
stroke-linecap:round; stroke-linejoin:round;">
<circle cx="16898" cy="3000" r="98.4252" /> 
</g>
<g style="fill:#FFFFFF; fill-opacity:1.0; 
stroke:#FFFFFF; stroke-width:39.3701; stroke-opacity:1; 
stroke-linecap:round; stroke-linejoin:round;">
</g>
<g style="fill:#FFFFFF; fill-opacity:1.0; 
stroke:#FFFFFF; stroke-width:0; stroke-opacity:1; 
stroke-linecap:round; stroke-linejoin:round;">
<circle cx="8598.03" cy="7800" r="98.4252" /> 
</g>
<g style="fill:#FFFFFF; fill-opacity:1.0; 
stroke:#FFFFFF; stroke-width:39.3701; stroke-opacity:1; 
stroke-linecap:round; stroke-linejoin:round;">
</g>
<g style="fill:#FFFFFF; fill-opacity:1.0; 
stroke:#FFFFFF; stroke-width:0; stroke-opacity:1; 
stroke-linecap:round; stroke-linejoin:round;">
<circle cx="14398" cy="5300" r="98.4252" /> 
</g>
<g style="fill:#FFFFFF; fill-opacity:1.0; 
stroke:#FFFFFF; stroke-width:39.3701; stroke-opacity:1; 
stroke-linecap:round; stroke-linejoin:round;">
</g>
<g style="fill:#FFFFFF; fill-opacity:1.0; 
stroke:#FFFFFF; stroke-width:0; stroke-opacity:1; 
stroke-linecap:round; stroke-linejoin:round;">
<circle cx="15498" cy="2500" r="157.48" /> 
</g>
<g style="fill:#FFFFFF; fill-opacity:1.0; 
stroke:#FFFFFF; stroke-width:39.3701; stroke-opacity:1; 
stroke-linecap:round; stroke-linejoin:round;">
</g>
<g style="fill:#FFFFFF; fill-opacity:1.0; 
stroke:#FFFFFF; stroke-width:0; stroke-opacity:1; 
stroke-linecap:round; stroke-linejoin:round;">
<circle cx="14498" cy="2500" r="157.48" /> 
</g>
<g style="fill:#FFFFFF; fill-opacity:1.0; 
stroke:#FFFFFF; stroke-width:39.3701; stroke-opacity:1; 
stroke-linecap:round; stroke-linejoin:round;">
</g>
<g style="fill:#FFFFFF; fill-opacity:1.0; 
stroke:#FFFFFF; stroke-width:0; stroke-opacity:1; 
stroke-linecap:round; stroke-linejoin:round;">
<circle cx="13498" cy="2500" r="157.48" /> 
</g>
<g style="fill:#FFFFFF; fill-opacity:1.0; 
stroke:#FFFFFF; stroke-width:39.3701; stroke-opacity:1; 
stroke-linecap:round; stroke-linejoin:round;">
</g>
<g style="fill:#FFFFFF; fill-opacity:1.0; 
stroke:#FFFFFF; stroke-width:0; stroke-opacity:1; 
stroke-linecap:round; stroke-linejoin:round;">
<circle cx="11398" cy="2500" r="157.48" /> 
</g>
<g style="fill:#FFFFFF; fill-opacity:1.0; 
stroke:#FFFFFF; stroke-width:39.3701; stroke-opacity:1; 
stroke-linecap:round; stroke-linejoin:round;">
</g>
<g style="fill:#FFFFFF; fill-opacity:1.0; 
stroke:#FFFFFF; stroke-width:0; stroke-opacity:1; 
stroke-linecap:round; stroke-linejoin:round;">
<circle cx="10398" cy="2500" r="157.48" /> 
</g>
<g style="fill:#FFFFFF; fill-opacity:1.0; 
stroke:#FFFFFF; stroke-width:39.3701; stroke-opacity:1; 
stroke-linecap:round; stroke-linejoin:round;">
</g>
<g style="fill:#FFFFFF; fill-opacity:1.0; 
stroke:#FFFFFF; stroke-width:0; stroke-opacity:1; 
stroke-linecap:round; stroke-linejoin:round;">
<circle cx="9398.03" cy="2500" r="157.48" /> 
</g>
<g style="fill:#FFFFFF; fill-opacity:1.0; 
stroke:#FFFFFF; stroke-width:39.3701; stroke-opacity:1; 
stroke-linecap:round; stroke-linejoin:round;">
</g>
<g style="fill:#FFFFFF; fill-opacity:1.0; 
stroke:#FFFFFF; stroke-width:393.701; stroke-opacity:1; 
stroke-linecap:round; stroke-linejoin:round;">
</g>
<g style="fill:#FFFFFF; fill-opacity:0.0; 
stroke:#FFFFFF; stroke-width:393.701; stroke-opacity:1; 
stroke-linecap:round; stroke-linejoin:round;">
<path d="M21272 6049
L20485 6049
" />
<path d="M22060 8293
L22060 7506
" />
<path d="M19698 8293
L19698 7506
" />
</g>
<g style="fill:#FFFFFF; fill-opacity:1.0; 
stroke:#FFFFFF; stroke-width:0; stroke-opacity:1; 
stroke-linecap:round; stroke-linejoin:round;">
<circle cx="7214.57" cy="4594.49" r="216.535" /> 
</g>
<g style="fill:#FFFFFF; fill-opacity:1.0; 
stroke:#FFFFFF; stroke-width:39.3701; stroke-opacity:1; 
stroke-linecap:round; stroke-linejoin:round;">
</g>
<g style="fill:#FFFFFF; fill-opacity:1.0; 
stroke:#FFFFFF; stroke-width:0; stroke-opacity:1; 
stroke-linecap:round; stroke-linejoin:round;">
<circle cx="7214.57" cy="6405.51" r="216.535" /> 
</g>
<g style="fill:#FFFFFF; fill-opacity:1.0; 
stroke:#FFFFFF; stroke-width:39.3701; stroke-opacity:1; 
stroke-linecap:round; stroke-linejoin:round;">
</g>
<g style="fill:#FFFFFF; fill-opacity:1.0; 
stroke:#FFFFFF; stroke-width:354.331; stroke-opacity:1; 
stroke-linecap:round; stroke-linejoin:round;">
</g>
<g style="fill:#FFFFFF; fill-opacity:0.0; 
stroke:#FFFFFF; stroke-width:354.331; stroke-opacity:1; 
stroke-linecap:round; stroke-linejoin:round;">
<path d="M7529 3255
L6899 3255
" />
<path d="M7529 7744
L6899 7744
" />
</g>
<g style="fill:#FFFFFF; fill-opacity:1.0; 
stroke:#FFFFFF; stroke-width:0; stroke-opacity:1; 
stroke-linecap:round; stroke-linejoin:round;">
<circle cx="20585.4" cy="4170.87" r="295.276" /> 
</g>
<g style="fill:#FFFFFF; fill-opacity:1.0; 
stroke:#FFFFFF; stroke-width:39.3701; stroke-opacity:1; 
stroke-linecap:round; stroke-linejoin:round;">
</g>
<g style="fill:#FFFFFF; fill-opacity:1.0; 
stroke:#FFFFFF; stroke-width:0; stroke-opacity:1; 
stroke-linecap:round; stroke-linejoin:round;">
<circle cx="17829.5" cy="4170.87" r="295.276" /> 
</g>
<g style="fill:#FFFFFF; fill-opacity:1.0; 
stroke:#FFFFFF; stroke-width:39.3701; stroke-opacity:1; 
stroke-linecap:round; stroke-linejoin:round;">
</g>
<g style="fill:#FFFFFF; fill-opacity:1.0; 
stroke:#FFFFFF; stroke-width:0; stroke-opacity:1; 
stroke-linecap:round; stroke-linejoin:round;">
<circle cx="17829.5" cy="2029.13" r="295.276" /> 
</g>
<g style="fill:#FFFFFF; fill-opacity:1.0; 
stroke:#FFFFFF; stroke-width:39.3701; stroke-opacity:1; 
stroke-linecap:round; stroke-linejoin:round;">
</g>
<g style="fill:#FFFFFF; fill-opacity:1.0; 
stroke:#FFFFFF; stroke-width:0; stroke-opacity:1; 
stroke-linecap:round; stroke-linejoin:round;">
<circle cx="20585.4" cy="2029.13" r="295.276" /> 
</g>
<g style="fill:#FFFFFF; fill-opacity:1.0; 
stroke:#FFFFFF; stroke-width:39.3701; stroke-opacity:1; 
stroke-linecap:round; stroke-linejoin:round;">
</g>
<g style="fill:#FFFFFF; fill-opacity:1.0; 
stroke:#FFFFFF; stroke-width:0; stroke-opacity:1; 
stroke-linecap:round; stroke-linejoin:round;">
<circle cx="20298" cy="3100" r="181.102" /> 
</g>
<g style="fill:#FFFFFF; fill-opacity:1.0; 
stroke:#FFFFFF; stroke-width:39.3701; stroke-opacity:1; 
stroke-linecap:round; stroke-linejoin:round;">
</g>
<g style="fill:#FFFFFF; fill-opacity:1.0; 
stroke:#FFFFFF; stroke-width:0; stroke-opacity:1; 
stroke-linecap:round; stroke-linejoin:round;">
<circle cx="19510.6" cy="3100" r="181.102" /> 
</g>
<g style="fill:#FFFFFF; fill-opacity:1.0; 
stroke:#FFFFFF; stroke-width:39.3701; stroke-opacity:1; 
stroke-linecap:round; stroke-linejoin:round;">
</g>
<g style="fill:#FFFFFF; fill-opacity:1.0; 
stroke:#FFFFFF; stroke-width:0; stroke-opacity:1; 
stroke-linecap:round; stroke-linejoin:round;">
<circle cx="18723.2" cy="3100" r="181.102" /> 
</g>
<g style="fill:#FFFFFF; fill-opacity:1.0; 
stroke:#FFFFFF; stroke-width:39.3701; stroke-opacity:1; 
stroke-linecap:round; stroke-linejoin:round;">
</g>
<g style="fill:#FFFFFF; fill-opacity:1.0; 
stroke:#FFFFFF; stroke-width:0; stroke-opacity:1; 
stroke-linecap:round; stroke-linejoin:round;">
<circle cx="17935.8" cy="3100" r="181.102" /> 
</g>
<g style="fill:#FFFFFF; fill-opacity:1.0; 
stroke:#FFFFFF; stroke-width:39.3701; stroke-opacity:1; 
stroke-linecap:round; stroke-linejoin:round;">
</g>
<g style="fill:#000000; fill-opacity:1.0; 
stroke:#000000; stroke-width:39.3701; stroke-opacity:1; 
stroke-linecap:round; stroke-linejoin:round;">
</g>
<g style="fill:#000000; fill-opacity:1.0; 
stroke:#000000; stroke-width:19.685; stroke-opacity:1; 
stroke-linecap:round; stroke-linejoin:round;">
</g>
<g style="fill:#000000; fill-opacity:0.0; 
stroke:#000000; stroke-width:19.685; stroke-opacity:1; 
stroke-linecap:round; stroke-linejoin:round;">
<path d="M5798 10400
L5798 700
" />
<path d="M23398 10400
L5798 10400
" />
<path d="M23398 700
L23398 10400
" />
<path d="M5798 700
L23398 700
" />
<g >
</g>
<g >
</g>
<g >
</g>
<g >
</g>
<g >
</g>
<g >
</g>
<g >
</g>
<g >
</g>
<g >
</g>
<g >
</g>
<g >
</g>
<g >
</g>
<g >
</g>
<g >
</g>
<g >
</g>
<g >
</g>
<g >
</g>
<g >
</g>
<g >
</g>
<g >
</g>
<g >
</g>
<g >
</g>
<g >
</g>
<g >
</g>
<g >
</g>
<g >
</g>
<g >
</g>
<g >
</g>
<g >
</g>
<g >
</g>
<g >
</g>
<g >
</g>
<g >
</g>
<g >
</g>
<g >
</g>
<g >
</g>
</g> 
</svg>
