<?xml version="1.0" standalone="no"?>
 <!DOCTYPE svg PUBLIC "-//W3C//DTD SVG 1.1//EN" 
 "http://www.w3.org/Graphics/SVG/1.1/DTD/svg11.dtd"> 
<svg
  xmlns:svg="http://www.w3.org/2000/svg"
  xmlns="http://www.w3.org/2000/svg"
  xmlns:xlink="http://www.w3.org/1999/xlink"
  version="1.1"
  width="7.244080cm" height="2.773680cm" viewBox="0 0 28520 10920">
<title>SVG Picture created as power-bank-load-brd.svg date 2022/07/14 21:33:43 </title>
  <desc>Picture generated by PCBNEW </desc>
<g style="fill:#000000; fill-opacity:1;stroke:#000000; stroke-opacity:1;
stroke-linecap:round; stroke-linejoin:round;"
 transform="translate(0 0) scale(1 1)">
</g>
<g style="fill:#000000; fill-opacity:0.0; 
stroke:#000000; stroke-width:-0.000393701; stroke-opacity:1; 
stroke-linecap:round; stroke-linejoin:round;">
<g >
</g>
<g style="fill:#000000; fill-opacity:1.0; 
stroke:#000000; stroke-width:0; stroke-opacity:1; 
stroke-linecap:round; stroke-linejoin:round;">
<circle cx="10013.8" cy="9100" r="257.48" /> 
</g>
<g style="fill:#000000; fill-opacity:1.0; 
stroke:#000000; stroke-width:39.3701; stroke-opacity:1; 
stroke-linecap:round; stroke-linejoin:round;">
</g>
<g style="fill:#000000; fill-opacity:1.0; 
stroke:#000000; stroke-width:0; stroke-opacity:1; 
stroke-linecap:round; stroke-linejoin:round;">
<circle cx="10998" cy="9100" r="257.48" /> 
</g>
<g style="fill:#000000; fill-opacity:1.0; 
stroke:#000000; stroke-width:39.3701; stroke-opacity:1; 
stroke-linecap:round; stroke-linejoin:round;">
</g>
<g style="fill:#000000; fill-opacity:1.0; 
stroke:#000000; stroke-width:0; stroke-opacity:1; 
stroke-linecap:round; stroke-linejoin:round;">
<path style="fill:#000000; fill-opacity:1.0; 
stroke:#000000; stroke-width:0; stroke-opacity:1; 
stroke-linecap:round; stroke-linejoin:round;fill-rule:evenodd;"
d="M 12239.8,8842.52
12239.8,9357.48
11724.8,9357.48
11724.8,8842.52
Z" /> 
</g>
<g >
</g>
<g style="fill:#000000; fill-opacity:1.0; 
stroke:#000000; stroke-width:0; stroke-opacity:1; 
stroke-linecap:round; stroke-linejoin:round;">
<circle cx="7098.03" cy="1800" r="492.126" /> 
</g>
<g style="fill:#000000; fill-opacity:1.0; 
stroke:#000000; stroke-width:39.3701; stroke-opacity:1; 
stroke-linecap:round; stroke-linejoin:round;">
</g>
<g >
</g>
<g style="fill:#000000; fill-opacity:1.0; 
stroke:#000000; stroke-width:39.3701; stroke-opacity:1; 
stroke-linecap:round; stroke-linejoin:round;">
</g>
<g style="fill:#000000; fill-opacity:1.0; 
stroke:#000000; stroke-width:0; stroke-opacity:1; 
stroke-linecap:round; stroke-linejoin:round;">
<path style="fill:#000000; fill-opacity:1.0; 
stroke:#000000; stroke-width:0; stroke-opacity:1; 
stroke-linecap:round; stroke-linejoin:round;fill-rule:evenodd;"
d="M 16301.2,9096.85
16301.2,8703.15
16694.9,8703.15
16694.9,9096.85
Z" /> 
</g>
<g >
</g>
<g style="fill:#000000; fill-opacity:1.0; 
stroke:#000000; stroke-width:0; stroke-opacity:1; 
stroke-linecap:round; stroke-linejoin:round;">
<path style="fill:#000000; fill-opacity:1.0; 
stroke:#000000; stroke-width:0; stroke-opacity:1; 
stroke-linecap:round; stroke-linejoin:round;fill-rule:evenodd;"
d="M 22201.2,5596.85
22201.2,5203.15
22594.9,5203.15
22594.9,5596.85
Z" /> 
</g>
<g >
</g>
<g style="fill:#000000; fill-opacity:1.0; 
stroke:#000000; stroke-width:0; stroke-opacity:1; 
stroke-linecap:round; stroke-linejoin:round;">
<circle cx="7098.03" cy="9200" r="492.126" /> 
</g>
<g style="fill:#000000; fill-opacity:1.0; 
stroke:#000000; stroke-width:39.3701; stroke-opacity:1; 
stroke-linecap:round; stroke-linejoin:round;">
</g>
<g >
</g>
<g style="fill:#000000; fill-opacity:1.0; 
stroke:#000000; stroke-width:39.3701; stroke-opacity:1; 
stroke-linecap:round; stroke-linejoin:round;">
</g>
<g style="fill:#000000; fill-opacity:1.0; 
stroke:#000000; stroke-width:0; stroke-opacity:1; 
stroke-linecap:round; stroke-linejoin:round;">
<circle cx="18398" cy="6300" r="492.126" /> 
</g>
<g style="fill:#000000; fill-opacity:1.0; 
stroke:#000000; stroke-width:39.3701; stroke-opacity:1; 
stroke-linecap:round; stroke-linejoin:round;">
</g>
<g >
</g>
<g style="fill:#000000; fill-opacity:1.0; 
stroke:#000000; stroke-width:39.3701; stroke-opacity:1; 
stroke-linecap:round; stroke-linejoin:round;">
</g>
<g style="fill:#000000; fill-opacity:1.0; 
stroke:#000000; stroke-width:0; stroke-opacity:1; 
stroke-linecap:round; stroke-linejoin:round;">
<path style="fill:#000000; fill-opacity:1.0; 
stroke:#000000; stroke-width:0; stroke-opacity:1; 
stroke-linecap:round; stroke-linejoin:round;fill-rule:evenodd;"
d="M 13201.2,5496.85
13201.2,5103.15
13594.9,5103.15
13594.9,5496.85
Z" /> 
</g>
<g >
</g>
<g style="fill:#000000; fill-opacity:1.0; 
stroke:#000000; stroke-width:0; stroke-opacity:1; 
stroke-linecap:round; stroke-linejoin:round;">
<path style="fill:#000000; fill-opacity:1.0; 
stroke:#000000; stroke-width:0; stroke-opacity:1; 
stroke-linecap:round; stroke-linejoin:round;fill-rule:evenodd;"
d="M 14501.2,8496.85
14501.2,8103.15
14894.9,8103.15
14894.9,8496.85
Z" /> 
</g>
<g >
</g>
<g style="fill:#000000; fill-opacity:1.0; 
stroke:#000000; stroke-width:0; stroke-opacity:1; 
stroke-linecap:round; stroke-linejoin:round;">
<path style="fill:#000000; fill-opacity:1.0; 
stroke:#000000; stroke-width:0; stroke-opacity:1; 
stroke-linecap:round; stroke-linejoin:round;fill-rule:evenodd;"
d="M 16001.2,4196.85
16001.2,3803.15
16394.9,3803.15
16394.9,4196.85
Z" /> 
</g>
<g >
</g>
<g style="fill:#000000; fill-opacity:1.0; 
stroke:#000000; stroke-width:0; stroke-opacity:1; 
stroke-linecap:round; stroke-linejoin:round;">
<path style="fill:#000000; fill-opacity:1.0; 
stroke:#000000; stroke-width:0; stroke-opacity:1; 
stroke-linecap:round; stroke-linejoin:round;fill-rule:evenodd;"
d="M 10701.2,6696.85
10701.2,6303.15
11094.9,6303.15
11094.9,6696.85
Z" /> 
</g>
<g >
</g>
<g style="fill:#000000; fill-opacity:1.0; 
stroke:#000000; stroke-width:0; stroke-opacity:1; 
stroke-linecap:round; stroke-linejoin:round;">
<path style="fill:#000000; fill-opacity:1.0; 
stroke:#000000; stroke-width:0; stroke-opacity:1; 
stroke-linecap:round; stroke-linejoin:round;fill-rule:evenodd;"
d="M 10601.2,3996.85
10601.2,3603.15
10994.9,3603.15
10994.9,3996.85
Z" /> 
</g>
<g >
</g>
<g style="fill:#000000; fill-opacity:1.0; 
stroke:#000000; stroke-width:0; stroke-opacity:1; 
stroke-linecap:round; stroke-linejoin:round;">
<path style="fill:#000000; fill-opacity:1.0; 
stroke:#000000; stroke-width:0; stroke-opacity:1; 
stroke-linecap:round; stroke-linejoin:round;fill-rule:evenodd;"
d="M 11501.2,3996.85
11501.2,3603.15
11894.9,3603.15
11894.9,3996.85
Z" /> 
</g>
<g >
</g>
<g style="fill:#000000; fill-opacity:1.0; 
stroke:#000000; stroke-width:0; stroke-opacity:1; 
stroke-linecap:round; stroke-linejoin:round;">
<path style="fill:#000000; fill-opacity:1.0; 
stroke:#000000; stroke-width:0; stroke-opacity:1; 
stroke-linecap:round; stroke-linejoin:round;fill-rule:evenodd;"
d="M 12401.2,3996.85
12401.2,3603.15
12794.9,3603.15
12794.9,3996.85
Z" /> 
</g>
<g >
</g>
<g style="fill:#000000; fill-opacity:1.0; 
stroke:#000000; stroke-width:0; stroke-opacity:1; 
stroke-linecap:round; stroke-linejoin:round;">
<path style="fill:#000000; fill-opacity:1.0; 
stroke:#000000; stroke-width:0; stroke-opacity:1; 
stroke-linecap:round; stroke-linejoin:round;fill-rule:evenodd;"
d="M 8401.18,8896.85
8401.18,8503.15
8794.88,8503.15
8794.88,8896.85
Z" /> 
</g>
<g >
</g>
<g style="fill:#000000; fill-opacity:1.0; 
stroke:#000000; stroke-width:0; stroke-opacity:1; 
stroke-linecap:round; stroke-linejoin:round;">
<path style="fill:#000000; fill-opacity:1.0; 
stroke:#000000; stroke-width:0; stroke-opacity:1; 
stroke-linecap:round; stroke-linejoin:round;fill-rule:evenodd;"
d="M 16701.2,3196.85
16701.2,2803.15
17094.9,2803.15
17094.9,3196.85
Z" /> 
</g>
<g >
</g>
<g style="fill:#000000; fill-opacity:1.0; 
stroke:#000000; stroke-width:0; stroke-opacity:1; 
stroke-linecap:round; stroke-linejoin:round;">
<path style="fill:#000000; fill-opacity:1.0; 
stroke:#000000; stroke-width:0; stroke-opacity:1; 
stroke-linecap:round; stroke-linejoin:round;fill-rule:evenodd;"
d="M 8401.18,7996.85
8401.18,7603.15
8794.88,7603.15
8794.88,7996.85
Z" /> 
</g>
<g >
</g>
<g style="fill:#000000; fill-opacity:1.0; 
stroke:#000000; stroke-width:0; stroke-opacity:1; 
stroke-linecap:round; stroke-linejoin:round;">
<path style="fill:#000000; fill-opacity:1.0; 
stroke:#000000; stroke-width:0; stroke-opacity:1; 
stroke-linecap:round; stroke-linejoin:round;fill-rule:evenodd;"
d="M 14201.2,5496.85
14201.2,5103.15
14594.9,5103.15
14594.9,5496.85
Z" /> 
</g>
<g >
</g>
<g style="fill:#000000; fill-opacity:1.0; 
stroke:#000000; stroke-width:0; stroke-opacity:1; 
stroke-linecap:round; stroke-linejoin:round;">
<path style="fill:#000000; fill-opacity:1.0; 
stroke:#000000; stroke-width:0; stroke-opacity:1; 
stroke-linecap:round; stroke-linejoin:round;fill-rule:evenodd;"
d="M 10954.2,5832.17
10959.9,5833.02
10965.6,5834.43
10971,5836.39
10976.3,5838.86
10981.2,5841.84
10985.9,5845.29
10990.2,5849.19
10994.1,5853.48
10997.5,5858.14
11000.5,5863.11
11003,5868.35
11004.9,5873.8
11006.3,5879.42
11007.2,5885.16
11007.5,5890.94
11007.5,6009.06
11007.2,6014.84
11006.3,6020.58
11004.9,6026.2
11003,6031.65
11000.5,6036.89
10997.5,6041.86
10994.1,6046.52
10990.2,6050.81
10985.9,6054.71
10981.2,6058.16
10976.3,6061.14
10971,6063.61
10965.6,6065.57
10959.9,6066.98
10954.2,6067.83
10948.4,6068.11
10298.8,6068.11
10293,6067.83
10287.3,6066.98
10281.7,6065.57
10276.2,6063.61
10271,6061.14
10266,6058.16
10261.4,6054.71
10257.1,6050.81
10253.2,6046.52
10249.7,6041.86
10246.7,6036.89
10244.3,6031.65
10242.3,6026.2
10240.9,6020.58
10240,6014.84
10239.8,6009.06
10239.8,5890.94
10240,5885.16
10240.9,5879.42
10242.3,5873.8
10244.3,5868.35
10246.7,5863.11
10249.7,5858.14
10253.2,5853.48
10257.1,5849.19
10261.4,5845.29
10266,5841.84
10271,5838.86
10276.2,5836.39
10281.7,5834.43
10287.3,5833.02
10293,5832.17
10298.8,5831.89
10948.4,5831.89
Z" /> 
<path style="fill:#000000; fill-opacity:1.0; 
stroke:#000000; stroke-width:0; stroke-opacity:1; 
stroke-linecap:round; stroke-linejoin:round;fill-rule:evenodd;"
d="M 10954.2,5332.17
10959.9,5333.02
10965.6,5334.43
10971,5336.39
10976.3,5338.86
10981.2,5341.84
10985.9,5345.29
10990.2,5349.19
10994.1,5353.48
10997.5,5358.14
11000.5,5363.11
11003,5368.35
11004.9,5373.8
11006.3,5379.42
11007.2,5385.16
11007.5,5390.94
11007.5,5509.06
11007.2,5514.84
11006.3,5520.58
11004.9,5526.2
11003,5531.65
11000.5,5536.89
10997.5,5541.86
10994.1,5546.52
10990.2,5550.81
10985.9,5554.71
10981.2,5558.16
10976.3,5561.14
10971,5563.61
10965.6,5565.57
10959.9,5566.98
10954.2,5567.83
10948.4,5568.11
10298.8,5568.11
10293,5567.83
10287.3,5566.98
10281.7,5565.57
10276.2,5563.61
10271,5561.14
10266,5558.16
10261.4,5554.71
10257.1,5550.81
10253.2,5546.52
10249.7,5541.86
10246.7,5536.89
10244.3,5531.65
10242.3,5526.2
10240.9,5520.58
10240,5514.84
10239.8,5509.06
10239.8,5390.94
10240,5385.16
10240.9,5379.42
10242.3,5373.8
10244.3,5368.35
10246.7,5363.11
10249.7,5358.14
10253.2,5353.48
10257.1,5349.19
10261.4,5345.29
10266,5341.84
10271,5338.86
10276.2,5336.39
10281.7,5334.43
10287.3,5333.02
10293,5332.17
10298.8,5331.89
10948.4,5331.89
Z" /> 
<path style="fill:#000000; fill-opacity:1.0; 
stroke:#000000; stroke-width:0; stroke-opacity:1; 
stroke-linecap:round; stroke-linejoin:round;fill-rule:evenodd;"
d="M 10954.2,4832.17
10959.9,4833.02
10965.6,4834.43
10971,4836.39
10976.3,4838.86
10981.2,4841.84
10985.9,4845.29
10990.2,4849.19
10994.1,4853.48
10997.5,4858.14
11000.5,4863.11
11003,4868.35
11004.9,4873.8
11006.3,4879.42
11007.2,4885.16
11007.5,4890.94
11007.5,5009.06
11007.2,5014.84
11006.3,5020.58
11004.9,5026.2
11003,5031.65
11000.5,5036.89
10997.5,5041.86
10994.1,5046.52
10990.2,5050.81
10985.9,5054.71
10981.2,5058.16
10976.3,5061.14
10971,5063.61
10965.6,5065.57
10959.9,5066.98
10954.2,5067.83
10948.4,5068.11
10298.8,5068.11
10293,5067.83
10287.3,5066.98
10281.7,5065.57
10276.2,5063.61
10271,5061.14
10266,5058.16
10261.4,5054.71
10257.1,5050.81
10253.2,5046.52
10249.7,5041.86
10246.7,5036.89
10244.3,5031.65
10242.3,5026.2
10240.9,5020.58
10240,5014.84
10239.8,5009.06
10239.8,4890.94
10240,4885.16
10240.9,4879.42
10242.3,4873.8
10244.3,4868.35
10246.7,4863.11
10249.7,4858.14
10253.2,4853.48
10257.1,4849.19
10261.4,4845.29
10266,4841.84
10271,4838.86
10276.2,4836.39
10281.7,4834.43
10287.3,4833.02
10293,4832.17
10298.8,4831.89
10948.4,4831.89
Z" /> 
<path style="fill:#000000; fill-opacity:1.0; 
stroke:#000000; stroke-width:0; stroke-opacity:1; 
stroke-linecap:round; stroke-linejoin:round;fill-rule:evenodd;"
d="M 10954.2,4332.17
10959.9,4333.02
10965.6,4334.43
10971,4336.39
10976.3,4338.86
10981.2,4341.84
10985.9,4345.29
10990.2,4349.19
10994.1,4353.48
10997.5,4358.14
11000.5,4363.11
11003,4368.35
11004.9,4373.8
11006.3,4379.42
11007.2,4385.16
11007.5,4390.94
11007.5,4509.06
11007.2,4514.84
11006.3,4520.58
11004.9,4526.2
11003,4531.65
11000.5,4536.89
10997.5,4541.86
10994.1,4546.52
10990.2,4550.81
10985.9,4554.71
10981.2,4558.16
10976.3,4561.14
10971,4563.61
10965.6,4565.57
10959.9,4566.98
10954.2,4567.83
10948.4,4568.11
10298.8,4568.11
10293,4567.83
10287.3,4566.98
10281.7,4565.57
10276.2,4563.61
10271,4561.14
10266,4558.16
10261.4,4554.71
10257.1,4550.81
10253.2,4546.52
10249.7,4541.86
10246.7,4536.89
10244.3,4531.65
10242.3,4526.2
10240.9,4520.58
10240,4514.84
10239.8,4509.06
10239.8,4390.94
10240,4385.16
10240.9,4379.42
10242.3,4373.8
10244.3,4368.35
10246.7,4363.11
10249.7,4358.14
10253.2,4353.48
10257.1,4349.19
10261.4,4345.29
10266,4341.84
10271,4338.86
10276.2,4336.39
10281.7,4334.43
10287.3,4333.02
10293,4332.17
10298.8,4331.89
10948.4,4331.89
Z" /> 
<path style="fill:#000000; fill-opacity:1.0; 
stroke:#000000; stroke-width:0; stroke-opacity:1; 
stroke-linecap:round; stroke-linejoin:round;fill-rule:evenodd;"
d="M 12903,4332.17
12908.8,4333.02
12914.4,4334.43
12919.8,4336.39
12925.1,4338.86
12930.1,4341.84
12934.7,4345.29
12939,4349.19
12942.9,4353.48
12946.3,4358.14
12949.3,4363.11
12951.8,4368.35
12953.8,4373.8
12955.2,4379.42
12956,4385.16
12956.3,4390.94
12956.3,4509.06
12956,4514.84
12955.2,4520.58
12953.8,4526.2
12951.8,4531.65
12949.3,4536.89
12946.3,4541.86
12942.9,4546.52
12939,4550.81
12934.7,4554.71
12930.1,4558.16
12925.1,4561.14
12919.8,4563.61
12914.4,4565.57
12908.8,4566.98
12903,4567.83
12897.2,4568.11
12247.6,4568.11
12241.8,4567.83
12236.1,4566.98
12230.5,4565.57
12225,4563.61
12219.8,4561.14
12214.8,4558.16
12210.2,4554.71
12205.9,4550.81
12202,4546.52
12198.5,4541.86
12195.6,4536.89
12193.1,4531.65
12191.1,4526.2
12189.7,4520.58
12188.9,4514.84
12188.6,4509.06
12188.6,4390.94
12188.9,4385.16
12189.7,4379.42
12191.1,4373.8
12193.1,4368.35
12195.6,4363.11
12198.5,4358.14
12202,4353.48
12205.9,4349.19
12210.2,4345.29
12214.8,4341.84
12219.8,4338.86
12225,4336.39
12230.5,4334.43
12236.1,4333.02
12241.8,4332.17
12247.6,4331.89
12897.2,4331.89
Z" /> 
<path style="fill:#000000; fill-opacity:1.0; 
stroke:#000000; stroke-width:0; stroke-opacity:1; 
stroke-linecap:round; stroke-linejoin:round;fill-rule:evenodd;"
d="M 12903,4832.17
12908.8,4833.02
12914.4,4834.43
12919.8,4836.39
12925.1,4838.86
12930.1,4841.84
12934.7,4845.29
12939,4849.19
12942.9,4853.48
12946.3,4858.14
12949.3,4863.11
12951.8,4868.35
12953.8,4873.8
12955.2,4879.42
12956,4885.16
12956.3,4890.94
12956.3,5009.06
12956,5014.84
12955.2,5020.58
12953.8,5026.2
12951.8,5031.65
12949.3,5036.89
12946.3,5041.86
12942.9,5046.52
12939,5050.81
12934.7,5054.71
12930.1,5058.16
12925.1,5061.14
12919.8,5063.61
12914.4,5065.57
12908.8,5066.98
12903,5067.83
12897.2,5068.11
12247.6,5068.11
12241.8,5067.83
12236.1,5066.98
12230.5,5065.57
12225,5063.61
12219.8,5061.14
12214.8,5058.16
12210.2,5054.71
12205.9,5050.81
12202,5046.52
12198.5,5041.86
12195.6,5036.89
12193.1,5031.65
12191.1,5026.2
12189.7,5020.58
12188.9,5014.84
12188.6,5009.06
12188.6,4890.94
12188.9,4885.16
12189.7,4879.42
12191.1,4873.8
12193.1,4868.35
12195.6,4863.11
12198.5,4858.14
12202,4853.48
12205.9,4849.19
12210.2,4845.29
12214.8,4841.84
12219.8,4838.86
12225,4836.39
12230.5,4834.43
12236.1,4833.02
12241.8,4832.17
12247.6,4831.89
12897.2,4831.89
Z" /> 
<path style="fill:#000000; fill-opacity:1.0; 
stroke:#000000; stroke-width:0; stroke-opacity:1; 
stroke-linecap:round; stroke-linejoin:round;fill-rule:evenodd;"
d="M 12903,5332.17
12908.8,5333.02
12914.4,5334.43
12919.8,5336.39
12925.1,5338.86
12930.1,5341.84
12934.7,5345.29
12939,5349.19
12942.9,5353.48
12946.3,5358.14
12949.3,5363.11
12951.8,5368.35
12953.8,5373.8
12955.2,5379.42
12956,5385.16
12956.3,5390.94
12956.3,5509.06
12956,5514.84
12955.2,5520.58
12953.8,5526.2
12951.8,5531.65
12949.3,5536.89
12946.3,5541.86
12942.9,5546.52
12939,5550.81
12934.7,5554.71
12930.1,5558.16
12925.1,5561.14
12919.8,5563.61
12914.4,5565.57
12908.8,5566.98
12903,5567.83
12897.2,5568.11
12247.6,5568.11
12241.8,5567.83
12236.1,5566.98
12230.5,5565.57
12225,5563.61
12219.8,5561.14
12214.8,5558.16
12210.2,5554.71
12205.9,5550.81
12202,5546.52
12198.5,5541.86
12195.6,5536.89
12193.1,5531.65
12191.1,5526.2
12189.7,5520.58
12188.9,5514.84
12188.6,5509.06
12188.6,5390.94
12188.9,5385.16
12189.7,5379.42
12191.1,5373.8
12193.1,5368.35
12195.6,5363.11
12198.5,5358.14
12202,5353.48
12205.9,5349.19
12210.2,5345.29
12214.8,5341.84
12219.8,5338.86
12225,5336.39
12230.5,5334.43
12236.1,5333.02
12241.8,5332.17
12247.6,5331.89
12897.2,5331.89
Z" /> 
<path style="fill:#000000; fill-opacity:1.0; 
stroke:#000000; stroke-width:0; stroke-opacity:1; 
stroke-linecap:round; stroke-linejoin:round;fill-rule:evenodd;"
d="M 12903,5832.17
12908.8,5833.02
12914.4,5834.43
12919.8,5836.39
12925.1,5838.86
12930.1,5841.84
12934.7,5845.29
12939,5849.19
12942.9,5853.48
12946.3,5858.14
12949.3,5863.11
12951.8,5868.35
12953.8,5873.8
12955.2,5879.42
12956,5885.16
12956.3,5890.94
12956.3,6009.06
12956,6014.84
12955.2,6020.58
12953.8,6026.2
12951.8,6031.65
12949.3,6036.89
12946.3,6041.86
12942.9,6046.52
12939,6050.81
12934.7,6054.71
12930.1,6058.16
12925.1,6061.14
12919.8,6063.61
12914.4,6065.57
12908.8,6066.98
12903,6067.83
12897.2,6068.11
12247.6,6068.11
12241.8,6067.83
12236.1,6066.98
12230.5,6065.57
12225,6063.61
12219.8,6061.14
12214.8,6058.16
12210.2,6054.71
12205.9,6050.81
12202,6046.52
12198.5,6041.86
12195.6,6036.89
12193.1,6031.65
12191.1,6026.2
12189.7,6020.58
12188.9,6014.84
12188.6,6009.06
12188.6,5890.94
12188.9,5885.16
12189.7,5879.42
12191.1,5873.8
12193.1,5868.35
12195.6,5863.11
12198.5,5858.14
12202,5853.48
12205.9,5849.19
12210.2,5845.29
12214.8,5841.84
12219.8,5838.86
12225,5836.39
12230.5,5834.43
12236.1,5833.02
12241.8,5832.17
12247.6,5831.89
12897.2,5831.89
Z" /> 
</g>
<g >
</g>
<g >
</g>
<g >
</g>
<g style="fill:#000000; fill-opacity:1.0; 
stroke:#000000; stroke-width:0; stroke-opacity:1; 
stroke-linecap:round; stroke-linejoin:round;">
<path style="fill:#000000; fill-opacity:1.0; 
stroke:#000000; stroke-width:0; stroke-opacity:1; 
stroke-linecap:round; stroke-linejoin:round;fill-rule:evenodd;"
d="M 16984.8,4539.45
16994.4,4540.87
17003.8,4543.21
17012.9,4546.47
17021.6,4550.6
17029.9,4555.56
17037.6,4561.32
17044.8,4567.8
17051.3,4574.96
17057,4582.72
17062,4591
17066.1,4599.74
17069.4,4608.83
17071.7,4618.2
17073.1,4627.75
17073.6,4637.4
17073.6,4844.1
17073.1,4853.74
17071.7,4863.3
17069.4,4872.67
17066.1,4881.76
17062,4890.49
17057,4898.78
17051.3,4906.54
17044.8,4913.69
17037.6,4920.18
17029.9,4925.93
17021.6,4930.9
17012.9,4935.03
17003.8,4938.28
16994.4,4940.63
16984.8,4942.05
16975.2,4942.52
16620.9,4942.52
16611.2,4942.05
16601.7,4940.63
16592.3,4938.28
16583.2,4935.03
16574.5,4930.9
16566.2,4925.93
16558.4,4920.18
16551.3,4913.69
16544.8,4906.54
16539,4898.78
16534.1,4890.49
16529.9,4881.76
16526.7,4872.67
16524.3,4863.3
16522.9,4853.74
16522.4,4844.1
16522.4,4637.4
16522.9,4627.75
16524.3,4618.2
16526.7,4608.83
16529.9,4599.74
16534.1,4591
16539,4582.72
16544.8,4574.96
16551.3,4567.8
16558.4,4561.32
16566.2,4555.56
16574.5,4550.6
16583.2,4546.47
16592.3,4543.21
16601.7,4540.87
16611.2,4539.45
16620.9,4538.98
16975.2,4538.98
Z" /> 
<path style="fill:#000000; fill-opacity:1.0; 
stroke:#000000; stroke-width:0; stroke-opacity:1; 
stroke-linecap:round; stroke-linejoin:round;fill-rule:evenodd;"
d="M 16984.8,5257.95
16994.4,5259.37
17003.8,5261.72
17012.9,5264.97
17021.6,5269.1
17029.9,5274.07
17037.6,5279.82
17044.8,5286.31
17051.3,5293.46
17057,5301.22
17062,5309.51
17066.1,5318.24
17069.4,5327.33
17071.7,5336.7
17073.1,5346.26
17073.6,5355.9
17073.6,5562.6
17073.1,5572.25
17071.7,5581.8
17069.4,5591.17
17066.1,5600.26
17062,5609
17057,5617.28
17051.3,5625.04
17044.8,5632.2
17037.6,5638.68
17029.9,5644.44
17021.6,5649.4
17012.9,5653.53
17003.8,5656.79
16994.4,5659.13
16984.8,5660.55
16975.2,5661.02
16620.9,5661.02
16611.2,5660.55
16601.7,5659.13
16592.3,5656.79
16583.2,5653.53
16574.5,5649.4
16566.2,5644.44
16558.4,5638.68
16551.3,5632.2
16544.8,5625.04
16539,5617.28
16534.1,5609
16529.9,5600.26
16526.7,5591.17
16524.3,5581.8
16522.9,5572.25
16522.4,5562.6
16522.4,5355.9
16522.9,5346.26
16524.3,5336.7
16526.7,5327.33
16529.9,5318.24
16534.1,5309.51
16539,5301.22
16544.8,5293.46
16551.3,5286.31
16558.4,5279.82
16566.2,5274.07
16574.5,5269.1
16583.2,5264.97
16592.3,5261.72
16601.7,5259.37
16611.2,5257.95
16620.9,5257.48
16975.2,5257.48
Z" /> 
</g>
<g >
</g>
<g style="fill:#000000; fill-opacity:1.0; 
stroke:#000000; stroke-width:0; stroke-opacity:1; 
stroke-linecap:round; stroke-linejoin:round;">
<path style="fill:#000000; fill-opacity:1.0; 
stroke:#000000; stroke-width:0; stroke-opacity:1; 
stroke-linecap:round; stroke-linejoin:round;fill-rule:evenodd;"
d="M 16370.3,7524.88
16379.8,7526.3
16389.2,7528.65
16398.3,7531.9
16407,7536.03
16415.3,7541
16423.1,7546.75
16430.2,7553.24
16436.7,7560.39
16442.5,7568.15
16447.4,7576.44
16451.6,7585.17
16454.8,7594.26
16457.2,7603.63
16458.6,7613.19
16459.1,7622.83
16459.1,7977.17
16458.6,7986.81
16457.2,7996.37
16454.8,8005.74
16451.6,8014.83
16447.4,8023.56
16442.5,8031.85
16436.7,8039.61
16430.2,8046.76
16423.1,8053.25
16415.3,8059
16407,8063.97
16398.3,8068.1
16389.2,8071.35
16379.8,8073.7
16370.3,8075.12
16360.6,8075.59
16153.9,8075.59
16144.3,8075.12
16134.7,8073.7
16125.4,8071.35
16116.3,8068.1
16107.5,8063.97
16099.3,8059
16091.5,8053.25
16084.3,8046.76
16077.9,8039.61
16072.1,8031.85
16067.1,8023.56
16063,8014.83
16059.8,8005.74
16057.4,7996.37
16056,7986.81
16055.5,7977.17
16055.5,7622.83
16056,7613.19
16057.4,7603.63
16059.8,7594.26
16063,7585.17
16067.1,7576.44
16072.1,7568.15
16077.9,7560.39
16084.3,7553.24
16091.5,7546.75
16099.3,7541
16107.5,7536.03
16116.3,7531.9
16125.4,7528.65
16134.7,7526.3
16144.3,7524.88
16153.9,7524.41
16360.6,7524.41
Z" /> 
<path style="fill:#000000; fill-opacity:1.0; 
stroke:#000000; stroke-width:0; stroke-opacity:1; 
stroke-linecap:round; stroke-linejoin:round;fill-rule:evenodd;"
d="M 15651.8,7524.88
15661.3,7526.3
15670.7,7528.65
15679.8,7531.9
15688.5,7536.03
15696.8,7541
15704.6,7546.75
15711.7,7553.24
15718.2,7560.39
15724,7568.15
15728.9,7576.44
15733.1,7585.17
15736.3,7594.26
15738.7,7603.63
15740.1,7613.19
15740.6,7622.83
15740.6,7977.17
15740.1,7986.81
15738.7,7996.37
15736.3,8005.74
15733.1,8014.83
15728.9,8023.56
15724,8031.85
15718.2,8039.61
15711.7,8046.76
15704.6,8053.25
15696.8,8059
15688.5,8063.97
15679.8,8068.1
15670.7,8071.35
15661.3,8073.7
15651.8,8075.12
15642.1,8075.59
15435.4,8075.59
15425.8,8075.12
15416.2,8073.7
15406.9,8071.35
15397.8,8068.1
15389,8063.97
15380.8,8059
15373,8053.25
15365.8,8046.76
15359.3,8039.61
15353.6,8031.85
15348.6,8023.56
15344.5,8014.83
15341.2,8005.74
15338.9,7996.37
15337.5,7986.81
15337,7977.17
15337,7622.83
15337.5,7613.19
15338.9,7603.63
15341.2,7594.26
15344.5,7585.17
15348.6,7576.44
15353.6,7568.15
15359.3,7560.39
15365.8,7553.24
15373,7546.75
15380.8,7541
15389,7536.03
15397.8,7531.9
15406.9,7528.65
15416.2,7526.3
15425.8,7524.88
15435.4,7524.41
15642.1,7524.41
Z" /> 
</g>
<g >
</g>
<g style="fill:#000000; fill-opacity:1.0; 
stroke:#000000; stroke-width:0; stroke-opacity:1; 
stroke-linecap:round; stroke-linejoin:round;">
<path style="fill:#000000; fill-opacity:1.0; 
stroke:#000000; stroke-width:0; stroke-opacity:1; 
stroke-linecap:round; stroke-linejoin:round;fill-rule:evenodd;"
d="M 15784.8,6757.95
15794.4,6759.37
15803.8,6761.72
15812.9,6764.97
15821.6,6769.1
15829.9,6774.07
15837.6,6779.82
15844.8,6786.31
15851.3,6793.46
15857,6801.22
15862,6809.51
15866.1,6818.24
15869.4,6827.33
15871.7,6836.7
15873.1,6846.26
15873.6,6855.9
15873.6,7062.6
15873.1,7072.25
15871.7,7081.8
15869.4,7091.17
15866.1,7100.26
15862,7109
15857,7117.28
15851.3,7125.04
15844.8,7132.2
15837.6,7138.68
15829.9,7144.44
15821.6,7149.4
15812.9,7153.53
15803.8,7156.79
15794.4,7159.13
15784.8,7160.55
15775.2,7161.02
15420.9,7161.02
15411.2,7160.55
15401.7,7159.13
15392.3,7156.79
15383.2,7153.53
15374.5,7149.4
15366.2,7144.44
15358.4,7138.68
15351.3,7132.2
15344.8,7125.04
15339,7117.28
15334.1,7109
15329.9,7100.26
15326.7,7091.17
15324.3,7081.8
15322.9,7072.25
15322.4,7062.6
15322.4,6855.9
15322.9,6846.26
15324.3,6836.7
15326.7,6827.33
15329.9,6818.24
15334.1,6809.51
15339,6801.22
15344.8,6793.46
15351.3,6786.31
15358.4,6779.82
15366.2,6774.07
15374.5,6769.1
15383.2,6764.97
15392.3,6761.72
15401.7,6759.37
15411.2,6757.95
15420.9,6757.48
15775.2,6757.48
Z" /> 
<path style="fill:#000000; fill-opacity:1.0; 
stroke:#000000; stroke-width:0; stroke-opacity:1; 
stroke-linecap:round; stroke-linejoin:round;fill-rule:evenodd;"
d="M 15784.8,6039.45
15794.4,6040.87
15803.8,6043.21
15812.9,6046.47
15821.6,6050.6
15829.9,6055.56
15837.6,6061.32
15844.8,6067.8
15851.3,6074.96
15857,6082.72
15862,6091
15866.1,6099.74
15869.4,6108.83
15871.7,6118.2
15873.1,6127.75
15873.6,6137.4
15873.6,6344.1
15873.1,6353.74
15871.7,6363.3
15869.4,6372.67
15866.1,6381.76
15862,6390.49
15857,6398.78
15851.3,6406.54
15844.8,6413.69
15837.6,6420.18
15829.9,6425.93
15821.6,6430.9
15812.9,6435.03
15803.8,6438.28
15794.4,6440.63
15784.8,6442.05
15775.2,6442.52
15420.9,6442.52
15411.2,6442.05
15401.7,6440.63
15392.3,6438.28
15383.2,6435.03
15374.5,6430.9
15366.2,6425.93
15358.4,6420.18
15351.3,6413.69
15344.8,6406.54
15339,6398.78
15334.1,6390.49
15329.9,6381.76
15326.7,6372.67
15324.3,6363.3
15322.9,6353.74
15322.4,6344.1
15322.4,6137.4
15322.9,6127.75
15324.3,6118.2
15326.7,6108.83
15329.9,6099.74
15334.1,6091
15339,6082.72
15344.8,6074.96
15351.3,6067.8
15358.4,6061.32
15366.2,6055.56
15374.5,6050.6
15383.2,6046.47
15392.3,6043.21
15401.7,6040.87
15411.2,6039.45
15420.9,6038.98
15775.2,6038.98
Z" /> 
</g>
<g >
</g>
<g style="fill:#000000; fill-opacity:1.0; 
stroke:#000000; stroke-width:0; stroke-opacity:1; 
stroke-linecap:round; stroke-linejoin:round;">
<path style="fill:#000000; fill-opacity:1.0; 
stroke:#000000; stroke-width:0; stroke-opacity:1; 
stroke-linecap:round; stroke-linejoin:round;fill-rule:evenodd;"
d="M 16884.8,6757.95
16894.4,6759.37
16903.8,6761.72
16912.9,6764.97
16921.6,6769.1
16929.9,6774.07
16937.6,6779.82
16944.8,6786.31
16951.3,6793.46
16957,6801.22
16962,6809.51
16966.1,6818.24
16969.4,6827.33
16971.7,6836.7
16973.1,6846.26
16973.6,6855.9
16973.6,7062.6
16973.1,7072.25
16971.7,7081.8
16969.4,7091.17
16966.1,7100.26
16962,7109
16957,7117.28
16951.3,7125.04
16944.8,7132.2
16937.6,7138.68
16929.9,7144.44
16921.6,7149.4
16912.9,7153.53
16903.8,7156.79
16894.4,7159.13
16884.8,7160.55
16875.2,7161.02
16520.9,7161.02
16511.2,7160.55
16501.7,7159.13
16492.3,7156.79
16483.2,7153.53
16474.5,7149.4
16466.2,7144.44
16458.4,7138.68
16451.3,7132.2
16444.8,7125.04
16439,7117.28
16434.1,7109
16429.9,7100.26
16426.7,7091.17
16424.3,7081.8
16422.9,7072.25
16422.4,7062.6
16422.4,6855.9
16422.9,6846.26
16424.3,6836.7
16426.7,6827.33
16429.9,6818.24
16434.1,6809.51
16439,6801.22
16444.8,6793.46
16451.3,6786.31
16458.4,6779.82
16466.2,6774.07
16474.5,6769.1
16483.2,6764.97
16492.3,6761.72
16501.7,6759.37
16511.2,6757.95
16520.9,6757.48
16875.2,6757.48
Z" /> 
<path style="fill:#000000; fill-opacity:1.0; 
stroke:#000000; stroke-width:0; stroke-opacity:1; 
stroke-linecap:round; stroke-linejoin:round;fill-rule:evenodd;"
d="M 16884.8,6039.45
16894.4,6040.87
16903.8,6043.21
16912.9,6046.47
16921.6,6050.6
16929.9,6055.56
16937.6,6061.32
16944.8,6067.8
16951.3,6074.96
16957,6082.72
16962,6091
16966.1,6099.74
16969.4,6108.83
16971.7,6118.2
16973.1,6127.75
16973.6,6137.4
16973.6,6344.1
16973.1,6353.74
16971.7,6363.3
16969.4,6372.67
16966.1,6381.76
16962,6390.49
16957,6398.78
16951.3,6406.54
16944.8,6413.69
16937.6,6420.18
16929.9,6425.93
16921.6,6430.9
16912.9,6435.03
16903.8,6438.28
16894.4,6440.63
16884.8,6442.05
16875.2,6442.52
16520.9,6442.52
16511.2,6442.05
16501.7,6440.63
16492.3,6438.28
16483.2,6435.03
16474.5,6430.9
16466.2,6425.93
16458.4,6420.18
16451.3,6413.69
16444.8,6406.54
16439,6398.78
16434.1,6390.49
16429.9,6381.76
16426.7,6372.67
16424.3,6363.3
16422.9,6353.74
16422.4,6344.1
16422.4,6137.4
16422.9,6127.75
16424.3,6118.2
16426.7,6108.83
16429.9,6099.74
16434.1,6091
16439,6082.72
16444.8,6074.96
16451.3,6067.8
16458.4,6061.32
16466.2,6055.56
16474.5,6050.6
16483.2,6046.47
16492.3,6043.21
16501.7,6040.87
16511.2,6039.45
16520.9,6038.98
16875.2,6038.98
Z" /> 
</g>
<g >
</g>
<g style="fill:#000000; fill-opacity:1.0; 
stroke:#000000; stroke-width:0; stroke-opacity:1; 
stroke-linecap:round; stroke-linejoin:round;">
<path style="fill:#000000; fill-opacity:1.0; 
stroke:#000000; stroke-width:0; stroke-opacity:1; 
stroke-linecap:round; stroke-linejoin:round;fill-rule:evenodd;"
d="M 14670.3,5824.88
14679.8,5826.3
14689.2,5828.65
14698.3,5831.9
14707,5836.03
14715.3,5841
14723.1,5846.75
14730.2,5853.24
14736.7,5860.39
14742.5,5868.15
14747.4,5876.44
14751.6,5885.17
14754.8,5894.26
14757.2,5903.63
14758.6,5913.19
14759.1,5922.83
14759.1,6277.17
14758.6,6286.81
14757.2,6296.37
14754.8,6305.74
14751.6,6314.83
14747.4,6323.56
14742.5,6331.85
14736.7,6339.61
14730.2,6346.76
14723.1,6353.25
14715.3,6359
14707,6363.97
14698.3,6368.1
14689.2,6371.35
14679.8,6373.7
14670.3,6375.12
14660.6,6375.59
14453.9,6375.59
14444.3,6375.12
14434.7,6373.7
14425.4,6371.35
14416.3,6368.1
14407.5,6363.97
14399.3,6359
14391.5,6353.25
14384.3,6346.76
14377.9,6339.61
14372.1,6331.85
14367.1,6323.56
14363,6314.83
14359.8,6305.74
14357.4,6296.37
14356,6286.81
14355.5,6277.17
14355.5,5922.83
14356,5913.19
14357.4,5903.63
14359.8,5894.26
14363,5885.17
14367.1,5876.44
14372.1,5868.15
14377.9,5860.39
14384.3,5853.24
14391.5,5846.75
14399.3,5841
14407.5,5836.03
14416.3,5831.9
14425.4,5828.65
14434.7,5826.3
14444.3,5824.88
14453.9,5824.41
14660.6,5824.41
Z" /> 
<path style="fill:#000000; fill-opacity:1.0; 
stroke:#000000; stroke-width:0; stroke-opacity:1; 
stroke-linecap:round; stroke-linejoin:round;fill-rule:evenodd;"
d="M 13951.8,5824.88
13961.3,5826.3
13970.7,5828.65
13979.8,5831.9
13988.5,5836.03
13996.8,5841
14004.6,5846.75
14011.7,5853.24
14018.2,5860.39
14024,5868.15
14028.9,5876.44
14033.1,5885.17
14036.3,5894.26
14038.7,5903.63
14040.1,5913.19
14040.6,5922.83
14040.6,6277.17
14040.1,6286.81
14038.7,6296.37
14036.3,6305.74
14033.1,6314.83
14028.9,6323.56
14024,6331.85
14018.2,6339.61
14011.7,6346.76
14004.6,6353.25
13996.8,6359
13988.5,6363.97
13979.8,6368.1
13970.7,6371.35
13961.3,6373.7
13951.8,6375.12
13942.1,6375.59
13735.4,6375.59
13725.8,6375.12
13716.2,6373.7
13706.9,6371.35
13697.8,6368.1
13689,6363.97
13680.8,6359
13673,6353.25
13665.8,6346.76
13659.3,6339.61
13653.6,6331.85
13648.6,6323.56
13644.5,6314.83
13641.2,6305.74
13638.9,6296.37
13637.5,6286.81
13637,6277.17
13637,5922.83
13637.5,5913.19
13638.9,5903.63
13641.2,5894.26
13644.5,5885.17
13648.6,5876.44
13653.6,5868.15
13659.3,5860.39
13665.8,5853.24
13673,5846.75
13680.8,5841
13689,5836.03
13697.8,5831.9
13706.9,5828.65
13716.2,5826.3
13725.8,5824.88
13735.4,5824.41
13942.1,5824.41
Z" /> 
</g>
<g >
</g>
<g style="fill:#000000; fill-opacity:1.0; 
stroke:#000000; stroke-width:0; stroke-opacity:1; 
stroke-linecap:round; stroke-linejoin:round;">
<path style="fill:#000000; fill-opacity:1.0; 
stroke:#000000; stroke-width:0; stroke-opacity:1; 
stroke-linecap:round; stroke-linejoin:round;fill-rule:evenodd;"
d="M 13651.8,4224.88
13661.3,4226.3
13670.7,4228.65
13679.8,4231.9
13688.5,4236.03
13696.8,4241
13704.6,4246.75
13711.7,4253.24
13718.2,4260.39
13724,4268.15
13728.9,4276.44
13733.1,4285.17
13736.3,4294.26
13738.7,4303.63
13740.1,4313.19
13740.6,4322.83
13740.6,4677.17
13740.1,4686.81
13738.7,4696.37
13736.3,4705.74
13733.1,4714.83
13728.9,4723.56
13724,4731.85
13718.2,4739.61
13711.7,4746.76
13704.6,4753.25
13696.8,4759
13688.5,4763.97
13679.8,4768.1
13670.7,4771.35
13661.3,4773.7
13651.8,4775.12
13642.1,4775.59
13435.4,4775.59
13425.8,4775.12
13416.2,4773.7
13406.9,4771.35
13397.8,4768.1
13389,4763.97
13380.8,4759
13373,4753.25
13365.8,4746.76
13359.3,4739.61
13353.6,4731.85
13348.6,4723.56
13344.5,4714.83
13341.2,4705.74
13338.9,4696.37
13337.5,4686.81
13337,4677.17
13337,4322.83
13337.5,4313.19
13338.9,4303.63
13341.2,4294.26
13344.5,4285.17
13348.6,4276.44
13353.6,4268.15
13359.3,4260.39
13365.8,4253.24
13373,4246.75
13380.8,4241
13389,4236.03
13397.8,4231.9
13406.9,4228.65
13416.2,4226.3
13425.8,4224.88
13435.4,4224.41
13642.1,4224.41
Z" /> 
<path style="fill:#000000; fill-opacity:1.0; 
stroke:#000000; stroke-width:0; stroke-opacity:1; 
stroke-linecap:round; stroke-linejoin:round;fill-rule:evenodd;"
d="M 14370.3,4224.88
14379.8,4226.3
14389.2,4228.65
14398.3,4231.9
14407,4236.03
14415.3,4241
14423.1,4246.75
14430.2,4253.24
14436.7,4260.39
14442.5,4268.15
14447.4,4276.44
14451.6,4285.17
14454.8,4294.26
14457.2,4303.63
14458.6,4313.19
14459.1,4322.83
14459.1,4677.17
14458.6,4686.81
14457.2,4696.37
14454.8,4705.74
14451.6,4714.83
14447.4,4723.56
14442.5,4731.85
14436.7,4739.61
14430.2,4746.76
14423.1,4753.25
14415.3,4759
14407,4763.97
14398.3,4768.1
14389.2,4771.35
14379.8,4773.7
14370.3,4775.12
14360.6,4775.59
14153.9,4775.59
14144.3,4775.12
14134.7,4773.7
14125.4,4771.35
14116.3,4768.1
14107.5,4763.97
14099.3,4759
14091.5,4753.25
14084.3,4746.76
14077.9,4739.61
14072.1,4731.85
14067.1,4723.56
14063,4714.83
14059.8,4705.74
14057.4,4696.37
14056,4686.81
14055.5,4677.17
14055.5,4322.83
14056,4313.19
14057.4,4303.63
14059.8,4294.26
14063,4285.17
14067.1,4276.44
14072.1,4268.15
14077.9,4260.39
14084.3,4253.24
14091.5,4246.75
14099.3,4241
14107.5,4236.03
14116.3,4231.9
14125.4,4228.65
14134.7,4226.3
14144.3,4224.88
14153.9,4224.41
14360.6,4224.41
Z" /> 
</g>
<g >
</g>
<g style="fill:#000000; fill-opacity:1.0; 
stroke:#000000; stroke-width:0; stroke-opacity:1; 
stroke-linecap:round; stroke-linejoin:round;">
<path style="fill:#000000; fill-opacity:1.0; 
stroke:#000000; stroke-width:0; stroke-opacity:1; 
stroke-linecap:round; stroke-linejoin:round;fill-rule:evenodd;"
d="M 15814.6,5257.48
15814.6,4942.52
16168.9,4942.52
16168.9,5257.48
Z" /> 
<path style="fill:#000000; fill-opacity:1.0; 
stroke:#000000; stroke-width:0; stroke-opacity:1; 
stroke-linecap:round; stroke-linejoin:round;fill-rule:evenodd;"
d="M 15027.2,5631.5
15027.2,5316.54
15381.5,5316.54
15381.5,5631.5
Z" /> 
<path style="fill:#000000; fill-opacity:1.0; 
stroke:#000000; stroke-width:0; stroke-opacity:1; 
stroke-linecap:round; stroke-linejoin:round;fill-rule:evenodd;"
d="M 15027.2,4883.46
15027.2,4568.5
15381.5,4568.5
15381.5,4883.46
Z" /> 
</g>
<g >
</g>
<g >
</g>
<g style="fill:#000000; fill-opacity:1.0; 
stroke:#000000; stroke-width:0; stroke-opacity:1; 
stroke-linecap:round; stroke-linejoin:round;">
<circle cx="7214.57" cy="4594.49" r="216.535" /> 
</g>
<g style="fill:#000000; fill-opacity:1.0; 
stroke:#000000; stroke-width:39.3701; stroke-opacity:1; 
stroke-linecap:round; stroke-linejoin:round;">
</g>
<g style="fill:#000000; fill-opacity:1.0; 
stroke:#000000; stroke-width:0; stroke-opacity:1; 
stroke-linecap:round; stroke-linejoin:round;">
<circle cx="7214.57" cy="6405.51" r="216.535" /> 
</g>
<g style="fill:#000000; fill-opacity:1.0; 
stroke:#000000; stroke-width:39.3701; stroke-opacity:1; 
stroke-linecap:round; stroke-linejoin:round;">
</g>
<g style="fill:#000000; fill-opacity:1.0; 
stroke:#000000; stroke-width:748.031; stroke-opacity:1; 
stroke-linecap:round; stroke-linejoin:round;">
</g>
<g style="fill:#000000; fill-opacity:0.0; 
stroke:#000000; stroke-width:748.031; stroke-opacity:1; 
stroke-linecap:round; stroke-linejoin:round;">
<path d="M7529 3255
L6899 3255
" />
<path d="M7529 7744
L6899 7744
" />
</g>
<g style="fill:#000000; fill-opacity:0.0; 
stroke:#000000; stroke-width:0; stroke-opacity:1; 
stroke-linecap:round; stroke-linejoin:round;">
</g>
<g style="fill:#000000; fill-opacity:1.0; 
stroke:#000000; stroke-width:0; stroke-opacity:1; 
stroke-linecap:round; stroke-linejoin:round;">
<path style="fill:#000000; fill-opacity:1.0; 
stroke:#000000; stroke-width:0; stroke-opacity:1; 
stroke-linecap:round; stroke-linejoin:round;fill-rule:evenodd;"
d="M 8789.37,3905.51
8789.37,4338.58
7805.12,4338.58
7805.12,3905.51
Z" /> 
<path style="fill:#000000; fill-opacity:1.0; 
stroke:#000000; stroke-width:0; stroke-opacity:1; 
stroke-linecap:round; stroke-linejoin:round;fill-rule:evenodd;"
d="M 8789.37,6661.42
8789.37,7094.49
7805.12,7094.49
7805.12,6661.42
Z" /> 
<path style="fill:#000000; fill-opacity:1.0; 
stroke:#000000; stroke-width:0; stroke-opacity:1; 
stroke-linecap:round; stroke-linejoin:round;fill-rule:evenodd;"
d="M 8789.37,4889.76
8789.37,5322.83
7805.12,5322.83
7805.12,4889.76
Z" /> 
<path style="fill:#000000; fill-opacity:1.0; 
stroke:#000000; stroke-width:0; stroke-opacity:1; 
stroke-linecap:round; stroke-linejoin:round;fill-rule:evenodd;"
d="M 8789.37,5677.17
8789.37,6110.24
7805.12,6110.24
7805.12,5677.17
Z" /> 
</g>
<g >
</g>
<g >
</g>
<g style="fill:#000000; fill-opacity:1.0; 
stroke:#000000; stroke-width:0; stroke-opacity:1; 
stroke-linecap:round; stroke-linejoin:round;">
<path style="fill:#000000; fill-opacity:1.0; 
stroke:#000000; stroke-width:0; stroke-opacity:1; 
stroke-linecap:round; stroke-linejoin:round;fill-rule:evenodd;"
d="M 15306.5,8755.99
15316.1,8757.4
15325.4,8759.75
15334.5,8763
15343.2,8767.13
15351.5,8772.1
15359.3,8777.85
15366.4,8784.34
15372.9,8791.5
15378.7,8799.25
15383.7,8807.54
15387.8,8816.27
15391,8825.37
15393.4,8834.74
15394.8,8844.29
15395.3,8853.94
15395.3,9346.06
15394.8,9355.71
15393.4,9365.26
15391,9374.63
15387.8,9383.73
15383.7,9392.46
15378.7,9400.75
15372.9,9408.5
15366.4,9415.66
15359.3,9422.15
15351.5,9427.9
15343.2,9432.87
15334.5,9437
15325.4,9440.25
15316.1,9442.6
15306.5,9444.01
15296.9,9444.49
15001.6,9444.49
14991.9,9444.01
14982.4,9442.6
14973,9440.25
14963.9,9437
14955.2,9432.87
14946.9,9427.9
14939.1,9422.15
14932,9415.66
14925.5,9408.5
14919.7,9400.75
14914.8,9392.46
14910.6,9383.73
14907.4,9374.63
14905,9365.26
14903.6,9355.71
14903.1,9346.06
14903.1,8853.94
14903.6,8844.29
14905,8834.74
14907.4,8825.37
14910.6,8816.27
14914.8,8807.54
14919.7,8799.25
14925.5,8791.5
14932,8784.34
14939.1,8777.85
14946.9,8772.1
14955.2,8767.13
14963.9,8763
14973,8759.75
14982.4,8757.4
14991.9,8755.99
15001.6,8755.51
15296.9,8755.51
Z" /> 
<path style="fill:#000000; fill-opacity:1.0; 
stroke:#000000; stroke-width:0; stroke-opacity:1; 
stroke-linecap:round; stroke-linejoin:round;fill-rule:evenodd;"
d="M 14204.1,8755.99
14213.7,8757.4
14223.1,8759.75
14232.2,8763
14240.9,8767.13
14249.2,8772.1
14256.9,8777.85
14264.1,8784.34
14270.6,8791.5
14276.3,8799.25
14281.3,8807.54
14285.4,8816.27
14288.7,8825.37
14291,8834.74
14292.4,8844.29
14292.9,8853.94
14292.9,9346.06
14292.4,9355.71
14291,9365.26
14288.7,9374.63
14285.4,9383.73
14281.3,9392.46
14276.3,9400.75
14270.6,9408.5
14264.1,9415.66
14256.9,9422.15
14249.2,9427.9
14240.9,9432.87
14232.2,9437
14223.1,9440.25
14213.7,9442.6
14204.1,9444.01
14194.5,9444.49
13899.2,9444.49
13889.6,9444.01
13880,9442.6
13870.6,9440.25
13861.5,9437
13852.8,9432.87
13844.5,9427.9
13836.8,9422.15
13829.6,9415.66
13823.1,9408.5
13817.4,9400.75
13812.4,9392.46
13808.3,9383.73
13805,9374.63
13802.7,9365.26
13801.3,9355.71
13800.8,9346.06
13800.8,8853.94
13801.3,8844.29
13802.7,8834.74
13805,8825.37
13808.3,8816.27
13812.4,8807.54
13817.4,8799.25
13823.1,8791.5
13829.6,8784.34
13836.8,8777.85
13844.5,8772.1
13852.8,8767.13
13861.5,8763
13870.6,8759.75
13880,8757.4
13889.6,8755.99
13899.2,8755.51
14194.5,8755.51
Z" /> 
</g>
<g >
</g>
<g style="fill:#000000; fill-opacity:1.0; 
stroke:#000000; stroke-width:0; stroke-opacity:1; 
stroke-linecap:round; stroke-linejoin:round;">
<path style="fill:#000000; fill-opacity:1.0; 
stroke:#000000; stroke-width:0; stroke-opacity:1; 
stroke-linecap:round; stroke-linejoin:round;fill-rule:evenodd;"
d="M 13202.8,6945.67
13202.8,7654.33
12218.5,7654.33
12218.5,6945.67
Z" /> 
<path style="fill:#000000; fill-opacity:1.0; 
stroke:#000000; stroke-width:0; stroke-opacity:1; 
stroke-linecap:round; stroke-linejoin:round;fill-rule:evenodd;"
d="M 14777.6,6945.67
14777.6,7654.33
13793.3,7654.33
13793.3,6945.67
Z" /> 
</g>
<g >
</g>
<g style="fill:#000000; fill-opacity:1.0; 
stroke:#000000; stroke-width:0; stroke-opacity:1; 
stroke-linecap:round; stroke-linejoin:round;">
<path style="fill:#000000; fill-opacity:1.0; 
stroke:#000000; stroke-width:0; stroke-opacity:1; 
stroke-linecap:round; stroke-linejoin:round;fill-rule:evenodd;"
d="M 10302.8,6945.67
10302.8,7654.33
9318.5,7654.33
9318.5,6945.67
Z" /> 
<path style="fill:#000000; fill-opacity:1.0; 
stroke:#000000; stroke-width:0; stroke-opacity:1; 
stroke-linecap:round; stroke-linejoin:round;fill-rule:evenodd;"
d="M 11877.6,6945.67
11877.6,7654.33
10893.3,7654.33
10893.3,6945.67
Z" /> 
</g>
<g >
</g>
<g style="fill:#000000; fill-opacity:1.0; 
stroke:#000000; stroke-width:0; stroke-opacity:1; 
stroke-linecap:round; stroke-linejoin:round;">
<path style="fill:#000000; fill-opacity:1.0; 
stroke:#000000; stroke-width:0; stroke-opacity:1; 
stroke-linecap:round; stroke-linejoin:round;fill-rule:evenodd;"
d="M 9694.69,4477.64
9704.24,4479.06
9713.61,4481.4
9722.71,4484.66
9731.44,4488.79
9739.72,4493.75
9747.48,4499.51
9754.64,4505.99
9761.12,4513.15
9766.88,4520.91
9771.84,4529.19
9775.97,4537.92
9779.23,4547.02
9781.57,4556.39
9782.99,4565.94
9783.46,4575.59
9783.46,4772.44
9782.99,4782.09
9781.57,4791.64
9779.23,4801.01
9775.97,4810.11
9771.84,4818.84
9766.88,4827.12
9761.12,4834.88
9754.64,4842.04
9747.48,4848.52
9739.72,4854.28
9731.44,4859.24
9722.71,4863.37
9713.61,4866.63
9704.24,4868.97
9694.69,4870.39
9685.04,4870.87
9311.02,4870.87
9301.38,4870.39
9291.82,4868.97
9282.45,4866.63
9273.36,4863.37
9264.63,4859.24
9256.34,4854.28
9248.58,4848.52
9241.43,4842.04
9234.94,4834.88
9229.19,4827.12
9224.22,4818.84
9220.09,4810.11
9216.84,4801.01
9214.49,4791.64
9213.07,4782.09
9212.6,4772.44
9212.6,4575.59
9213.07,4565.94
9214.49,4556.39
9216.84,4547.02
9220.09,4537.92
9224.22,4529.19
9229.19,4520.91
9234.94,4513.15
9241.43,4505.99
9248.58,4499.51
9256.34,4493.75
9264.63,4488.79
9273.36,4484.66
9282.45,4481.4
9291.82,4479.06
9301.38,4477.64
9311.02,4477.17
9685.04,4477.17
Z" /> 
<path style="fill:#000000; fill-opacity:1.0; 
stroke:#000000; stroke-width:0; stroke-opacity:1; 
stroke-linecap:round; stroke-linejoin:round;fill-rule:evenodd;"
d="M 9694.69,3729.61
9704.24,3731.03
9713.61,3733.37
9722.71,3736.63
9731.44,3740.76
9739.72,3745.72
9747.48,3751.48
9754.64,3757.96
9761.12,3765.12
9766.88,3772.88
9771.84,3781.16
9775.97,3789.89
9779.23,3798.99
9781.57,3808.36
9782.99,3817.91
9783.46,3827.56
9783.46,4024.41
9782.99,4034.06
9781.57,4043.61
9779.23,4052.98
9775.97,4062.08
9771.84,4070.81
9766.88,4079.09
9761.12,4086.85
9754.64,4094.01
9747.48,4100.49
9739.72,4106.25
9731.44,4111.21
9722.71,4115.34
9713.61,4118.6
9704.24,4120.94
9694.69,4122.36
9685.04,4122.83
9311.02,4122.83
9301.38,4122.36
9291.82,4120.94
9282.45,4118.6
9273.36,4115.34
9264.63,4111.21
9256.34,4106.25
9248.58,4100.49
9241.43,4094.01
9234.94,4086.85
9229.19,4079.09
9224.22,4070.81
9220.09,4062.08
9216.84,4052.98
9214.49,4043.61
9213.07,4034.06
9212.6,4024.41
9212.6,3827.56
9213.07,3817.91
9214.49,3808.36
9216.84,3798.99
9220.09,3789.89
9224.22,3781.16
9229.19,3772.88
9234.94,3765.12
9241.43,3757.96
9248.58,3751.48
9256.34,3745.72
9264.63,3740.76
9273.36,3736.63
9282.45,3733.37
9291.82,3731.03
9301.38,3729.61
9311.02,3729.13
9685.04,3729.13
Z" /> 
</g>
<g >
</g>
<g style="fill:#000000; fill-opacity:1.0; 
stroke:#000000; stroke-width:0; stroke-opacity:1; 
stroke-linecap:round; stroke-linejoin:round;">
<path style="fill:#000000; fill-opacity:1.0; 
stroke:#000000; stroke-width:0; stroke-opacity:1; 
stroke-linecap:round; stroke-linejoin:round;fill-rule:evenodd;"
d="M 9694.69,5977.64
9704.24,5979.06
9713.61,5981.4
9722.71,5984.66
9731.44,5988.79
9739.72,5993.75
9747.48,5999.51
9754.64,6005.99
9761.12,6013.15
9766.88,6020.91
9771.84,6029.19
9775.97,6037.92
9779.23,6047.02
9781.57,6056.39
9782.99,6065.94
9783.46,6075.59
9783.46,6272.44
9782.99,6282.09
9781.57,6291.64
9779.23,6301.01
9775.97,6310.11
9771.84,6318.84
9766.88,6327.12
9761.12,6334.88
9754.64,6342.04
9747.48,6348.52
9739.72,6354.28
9731.44,6359.24
9722.71,6363.37
9713.61,6366.63
9704.24,6368.97
9694.69,6370.39
9685.04,6370.87
9311.02,6370.87
9301.38,6370.39
9291.82,6368.97
9282.45,6366.63
9273.36,6363.37
9264.63,6359.24
9256.34,6354.28
9248.58,6348.52
9241.43,6342.04
9234.94,6334.88
9229.19,6327.12
9224.22,6318.84
9220.09,6310.11
9216.84,6301.01
9214.49,6291.64
9213.07,6282.09
9212.6,6272.44
9212.6,6075.59
9213.07,6065.94
9214.49,6056.39
9216.84,6047.02
9220.09,6037.92
9224.22,6029.19
9229.19,6020.91
9234.94,6013.15
9241.43,6005.99
9248.58,5999.51
9256.34,5993.75
9264.63,5988.79
9273.36,5984.66
9282.45,5981.4
9291.82,5979.06
9301.38,5977.64
9311.02,5977.17
9685.04,5977.17
Z" /> 
<path style="fill:#000000; fill-opacity:1.0; 
stroke:#000000; stroke-width:0; stroke-opacity:1; 
stroke-linecap:round; stroke-linejoin:round;fill-rule:evenodd;"
d="M 9694.69,5229.61
9704.24,5231.03
9713.61,5233.37
9722.71,5236.63
9731.44,5240.76
9739.72,5245.72
9747.48,5251.48
9754.64,5257.96
9761.12,5265.12
9766.88,5272.88
9771.84,5281.16
9775.97,5289.89
9779.23,5298.99
9781.57,5308.36
9782.99,5317.91
9783.46,5327.56
9783.46,5524.41
9782.99,5534.06
9781.57,5543.61
9779.23,5552.98
9775.97,5562.08
9771.84,5570.81
9766.88,5579.09
9761.12,5586.85
9754.64,5594.01
9747.48,5600.49
9739.72,5606.25
9731.44,5611.21
9722.71,5615.34
9713.61,5618.6
9704.24,5620.94
9694.69,5622.36
9685.04,5622.83
9311.02,5622.83
9301.38,5622.36
9291.82,5620.94
9282.45,5618.6
9273.36,5615.34
9264.63,5611.21
9256.34,5606.25
9248.58,5600.49
9241.43,5594.01
9234.94,5586.85
9229.19,5579.09
9224.22,5570.81
9220.09,5562.08
9216.84,5552.98
9214.49,5543.61
9213.07,5534.06
9212.6,5524.41
9212.6,5327.56
9213.07,5317.91
9214.49,5308.36
9216.84,5298.99
9220.09,5289.89
9224.22,5281.16
9229.19,5272.88
9234.94,5265.12
9241.43,5257.96
9248.58,5251.48
9256.34,5245.72
9264.63,5240.76
9273.36,5236.63
9282.45,5233.37
9291.82,5231.03
9301.38,5229.61
9311.02,5229.13
9685.04,5229.13
Z" /> 
</g>
<g >
</g>
<g >
</g>
<g >
</g>
</g>
<g style="fill:#000000; fill-opacity:1.0; 
stroke:#000000; stroke-width:0; stroke-opacity:1; 
stroke-linecap:round; stroke-linejoin:round;">
</g>
<g style="fill:#000000; fill-opacity:1.0; 
stroke:#000000; stroke-width:19.685; stroke-opacity:1; 
stroke-linecap:round; stroke-linejoin:round;">
</g>
<g style="fill:#000000; fill-opacity:0.0; 
stroke:#000000; stroke-width:19.685; stroke-opacity:1; 
stroke-linecap:round; stroke-linejoin:round;">
<path d="M5798 10400
L5798 700
" />
<path d="M23398 10400
L5798 10400
" />
<path d="M23398 700
L23398 10400
" />
<path d="M5798 700
L23398 700
" />
<g >
</g>
<g >
</g>
<g >
</g>
<g >
</g>
<g >
</g>
<g >
</g>
<g >
</g>
<g >
</g>
<g >
</g>
<g >
</g>
<g >
</g>
<g >
</g>
<g >
</g>
<g >
</g>
<g >
</g>
<g >
</g>
<g >
</g>
<g >
</g>
<g >
</g>
<g >
</g>
<g >
</g>
<g >
</g>
<g >
</g>
<g >
</g>
<g >
</g>
<g >
</g>
<g >
</g>
<g >
</g>
<g >
</g>
<g >
</g>
<g >
</g>
<g >
</g>
<g >
</g>
<g >
</g>
<g >
</g>
<g >
</g>
</g> 
</svg>
