M48
; DRILL file {KiCad (5.1.10)-1} date 07/10/22 14:44:41
; FORMAT={-:-/ absolute / metric / decimal}
; #@! TF.CreationDate,2022-07-10T14:44:41+03:00
; #@! TF.GenerationSoftware,Kicad,Pcbnew,(5.1.10)-1
FMAT,2
METRIC
T1C0.500
T2C0.800
T3C0.900
T4C0.920
T5C1.000
T6C1.500
T7C1.100
T8C2.500
%
G90
G05
T1
X21.336Y-32.258
X21.336Y-34.544
X26.924Y-22.098
X27.178Y-28.956
X29.21Y-22.098
X31.496Y-22.098
X33.528Y-25.908
X36.068Y-25.908
X36.83Y-33.528
X40.64Y-22.606
X41.402Y-35.052
X42.418Y-20.066
X56.388Y-26.162
T2
X23.368Y-18.796
X24.932Y-35.56
X25.908Y-18.796
X27.432Y-35.56
X28.448Y-18.796
X29.932Y-35.56
X33.782Y-18.796
X36.322Y-18.796
X38.862Y-18.796
T4
X45.054Y-20.32
X47.054Y-20.32
X49.054Y-20.32
X51.054Y-20.32
T6
X44.784Y-17.6
X44.784Y-23.04
X51.784Y-17.6
X51.784Y-23.04
T7
X17.822Y-24.116
X17.822Y-28.716
T8
X17.526Y-17.018
X17.526Y-35.814
X46.228Y-28.448
T3
G00X18.622Y-20.716
M15
G01X17.022Y-20.716
M16
G05
G00X18.622Y-32.116
M15
G01X17.022Y-32.116
M16
G05
T5
G00X49.53Y-33.512
M15
G01X49.53Y-31.512
M16
G05
G00X53.53Y-27.812
M15
G01X51.53Y-27.812
M16
G05
G00X55.53Y-33.512
M15
G01X55.53Y-31.512
M16
G05
T0
M30
